<?xml version="1.0" standalone="no"?>
<!DOCTYPE svg PUBLIC "-//W3C//DTD SVG 20010904//EN"
 "http://www.w3.org/TR/2001/REC-SVG-20010904/DTD/svg10.dtd">
<svg version="1.0" xmlns="http://www.w3.org/2000/svg"
 width="1024.000000pt" height="1024.000000pt" viewBox="0 0 1024.000000 1024.000000"
 preserveAspectRatio="xMidYMid meet">

<g transform="translate(0.000000,1024.000000) scale(0.100000,-0.100000)"
fill="#000000" stroke="none">
<path d="M0 5120 l0 -5120 5120 0 5120 0 0 5120 0 5120 -5120 0 -5120 0 0
-5120z m5155 4056 c14 -76 30 -147 35 -157 6 -10 10 -31 10 -48 0 -16 7 -36
15 -44 8 -8 11 -17 8 -21 -4 -3 -1 -6 6 -6 7 0 11 -8 9 -17 -1 -10 1 -23 5
-30 4 -6 3 -14 -2 -18 -11 -6 -3 -36 13 -47 6 -4 12 -12 12 -18 1 -5 2 -14 3
-20 0 -5 5 -10 10 -10 5 0 7 10 3 22 -4 17 -2 20 12 15 10 -4 25 -7 34 -7 10
0 13 -3 7 -8 -16 -11 -31 -55 -27 -79 2 -12 12 -25 23 -28 10 -4 19 -13 19
-21 0 -8 3 -13 8 -13 18 3 32 -2 32 -12 0 -6 -9 -8 -22 -3 -20 6 -21 5 -10 -8
10 -13 9 -18 -3 -28 -14 -12 -14 -15 1 -31 9 -10 19 -17 23 -15 3 2 13 -3 21
-12 13 -14 12 -15 -3 -9 -28 11 -20 -22 8 -35 19 -8 24 -16 19 -31 -4 -13 -2
-17 5 -13 6 4 18 0 27 -8 8 -9 29 -16 45 -16 17 0 28 -4 25 -9 -3 -5 2 -11 12
-14 9 -2 24 -8 33 -11 12 -5 21 7 40 54 13 33 28 60 32 60 8 0 4 -54 -9 -121
-4 -23 -1 -28 28 -38 22 -8 34 -8 36 -1 5 14 22 13 22 -2 1 -14 41 -36 140
-75 36 -14 89 -37 118 -51 l52 -25 25 23 c17 16 37 24 61 24 30 0 42 -8 76
-47 36 -41 43 -45 53 -31 10 14 15 14 34 4 21 -10 26 -8 58 29 19 23 39 39 43
36 12 -7 1 -37 -18 -52 -14 -12 -14 -15 4 -27 10 -8 16 -18 11 -22 -4 -4 -12
-3 -19 4 -8 8 -17 7 -35 -5 -20 -14 -28 -14 -49 -3 -28 16 -51 2 -41 -24 7
-17 37 -22 37 -6 0 21 18 9 30 -20 15 -37 133 -107 203 -121 80 -15 125 -11
252 22 183 47 234 57 326 64 86 6 139 13 174 21 16 4 17 3 5 -4 -8 -6 -49 -18
-90 -27 -41 -10 -178 -47 -305 -82 -224 -63 -310 -86 -791 -211 -238 -61 -262
-70 -303 -106 -14 -11 -1 7 29 42 31 36 64 65 79 68 28 7 223 58 281 74 85 24
221 59 288 75 39 9 72 21 72 25 0 4 -18 10 -40 13 -22 3 -61 19 -87 37 -147
97 -709 350 -780 350 -9 0 -60 16 -114 36 -76 27 -112 34 -151 32 -42 -2 -52
-6 -55 -23 -28 -177 -29 -215 -7 -215 14 0 15 -7 9 -42 -4 -24 -9 -52 -10 -64
-1 -11 -5 -26 -9 -32 -9 -14 19 -62 35 -62 6 0 37 25 70 57 32 31 59 52 59 46
0 -5 -27 -35 -60 -66 -35 -32 -55 -57 -47 -60 7 -3 0 -15 -20 -35 l-32 -31 38
-11 c22 -6 94 -18 162 -29 117 -17 122 -19 89 -29 -102 -32 -155 -54 -162 -66
-4 -8 -33 -28 -63 -45 -30 -17 -55 -35 -55 -41 0 -17 42 -32 71 -26 40 8 36
-2 -7 -20 -28 -12 -34 -19 -29 -34 5 -15 2 -18 -8 -14 -8 3 -17 18 -20 33 -5
24 -11 28 -34 27 -15 -1 -33 -4 -39 -8 -6 -4 -30 -87 -54 -185 -23 -98 -45
-185 -48 -193 -3 -8 -10 14 -17 50 -19 101 -67 252 -77 238 -4 -7 -8 -8 -8 -3
0 6 -10 21 -21 34 -15 19 -29 24 -59 23 -22 -1 -40 2 -40 8 0 5 -12 16 -27 24
l-28 15 33 1 c17 0 32 5 32 11 0 5 6 7 13 4 6 -4 -8 11 -33 34 -25 22 -62 48
-82 57 -21 9 -36 20 -33 24 2 4 -26 17 -63 30 -37 12 -71 26 -75 30 -5 4 27
10 70 14 43 4 98 12 124 17 45 10 45 10 45 51 0 34 -6 47 -35 76 -35 33 -25
29 38 -15 22 -16 24 -16 42 8 48 62 59 113 38 179 -5 19 -13 87 -17 150 l-7
115 -30 3 c-32 3 -308 -73 -415 -115 -36 -14 -126 -52 -200 -84 -129 -55 -178
-80 -386 -197 -50 -28 -104 -54 -120 -57 -56 -13 -61 -16 -34 -27 14 -5 79
-23 145 -39 66 -16 140 -36 165 -43 25 -8 59 -17 75 -21 17 -3 83 -22 148 -42
115 -36 119 -38 165 -91 l46 -55 -41 27 c-29 19 -124 51 -305 101 -664 184
-1222 344 -1148 330 14 -3 75 -10 135 -15 81 -8 162 -25 309 -66 176 -50 206
-56 265 -52 68 6 117 23 186 68 22 15 81 48 130 75 124 66 119 60 77 101 l-37
35 37 -15 c20 -8 47 -12 59 -9 18 5 21 3 16 -10 -4 -10 -3 -17 2 -17 4 0 64
26 132 58 68 32 153 69 189 82 36 13 68 29 72 36 5 7 17 10 27 7 26 -7 62 14
55 32 -4 8 -1 15 5 15 6 0 11 -5 11 -11 0 -6 9 -8 23 -3 12 4 32 7 45 6 12 -1
22 3 22 9 0 11 25 40 35 39 50 -3 70 27 39 61 -13 15 -15 22 -6 31 7 7 8 16 2
23 -11 14 26 59 41 50 5 -4 9 4 8 17 0 13 -3 17 -6 11 -2 -7 -13 -13 -24 -13
-10 0 -19 -6 -19 -12 0 -7 -7 0 -15 16 -18 34 -18 36 -5 36 6 0 10 -7 10 -16
0 -12 5 -13 23 -8 12 5 32 8 44 7 19 -1 21 2 12 19 -11 21 5 53 22 42 5 -3 6
1 3 9 -3 8 8 30 24 48 16 19 33 50 37 69 4 19 13 55 21 80 7 25 16 61 19 80
12 79 36 198 49 245 8 28 19 108 25 178 6 70 12 136 12 145 1 9 6 -37 10 -103
4 -66 19 -182 34 -259z m-703 -111 c3 -13 1 -22 -3 -19 -9 5 -13 44 -5 44 2 0
6 -11 8 -25z m1124 -56 c-7 -44 -24 -84 -33 -76 -2 3 1 31 8 61 14 65 35 77
25 15z m-146 -109 c0 -5 -2 -10 -4 -10 -3 0 -8 5 -11 10 -3 6 -1 10 4 10 6 0
11 -4 11 -10z m-460 -10 c0 -5 -2 -10 -4 -10 -3 0 -8 5 -11 10 -3 6 -1 10 4
10 6 0 11 -4 11 -10z m-2975 -89 c-7 -6 -65 50 -65 63 0 5 16 -5 35 -24 19
-18 32 -36 30 -39z m3410 8 c-5 -13 -3 -19 3 -15 5 3 12 -5 14 -19 3 -16 1
-25 -7 -25 -7 0 -17 -10 -23 -22 -12 -25 -10 -30 -16 47 -2 29 10 54 27 55 5
0 5 -10 2 -21z m80 11 c3 -5 1 -10 -4 -10 -6 0 -11 5 -11 10 0 6 2 10 4 10 3
0 8 -4 11 -10z m-170 -10 c3 -5 1 -10 -4 -10 -6 0 -11 5 -11 10 0 6 2 10 4 10
3 0 8 -4 11 -10z m209 -2 c-19 -33 -27 -39 -35 -26 -4 7 -3 18 3 25 14 17 42
17 32 1z m-1362 -54 c21 -27 38 -53 38 -59 -1 -12 -77 70 -92 98 -20 38 16 12
54 -39z m1836 -5 c-11 -33 -22 -58 -24 -56 -6 6 28 117 37 117 4 0 -2 -27 -13
-61z m-548 41 c0 -5 -4 -10 -10 -10 -5 0 -10 5 -10 10 0 6 5 10 10 10 6 0 10
-4 10 -10z m93 -28 c-6 -24 -23 -30 -23 -9 0 13 21 39 26 34 2 -2 1 -13 -3
-25z m-836 -4 c-3 -8 -6 -5 -6 6 -1 11 2 17 5 13 3 -3 4 -12 1 -19z m1924 -5
c-8 -15 -10 -15 -11 -2 0 17 10 32 18 25 2 -3 -1 -13 -7 -23z m-716 7 c3 -5 1
-10 -4 -10 -6 0 -11 5 -11 10 0 6 2 10 4 10 3 0 8 -4 11 -10z m8 -52 c-3 -5
-13 -2 -22 6 -10 9 -23 16 -30 16 -7 0 -9 5 -6 10 4 7 17 4 35 -7 16 -9 26
-21 23 -25z m-423 22 c0 -5 -5 -10 -11 -10 -5 0 -8 -4 -5 -9 3 -5 25 -7 48 -6
32 2 46 -1 55 -15 8 -11 20 -16 32 -13 10 2 32 -2 49 -11 24 -12 28 -20 25
-41 -3 -14 -11 -25 -18 -25 -7 0 -15 -6 -18 -12 -3 -9 -9 -7 -20 7 -9 11 -11
22 -6 23 5 2 9 8 9 13 0 6 -27 8 -65 5 -59 -4 -65 -3 -71 17 -3 12 -13 30 -21
39 -9 10 -13 24 -10 33 7 17 27 21 27 5z m1472 -42 c-32 -47 -72 -87 -72 -72
0 25 86 131 97 120 3 -3 -8 -24 -25 -48z m-1107 23 c7 -12 -12 -24 -25 -16
-11 7 -4 25 10 25 5 0 11 -4 15 -9z m-435 -41 c0 -5 -8 -10 -17 -10 -15 0 -16
2 -3 10 19 12 20 12 20 0z m40 0 c0 -5 -4 -10 -10 -10 -5 0 -10 5 -10 10 0 6
5 10 10 10 6 0 10 -4 10 -10z m-76 -26 c4 -10 1 -14 -6 -12 -15 5 -23 28 -10
28 5 0 13 -7 16 -16z m476 -14 c0 -5 7 -7 15 -4 19 8 19 -1 -1 -31 -9 -14 -23
-25 -30 -25 -19 0 -17 17 3 29 14 8 15 12 4 25 -9 11 -10 16 -2 16 6 0 11 -4
11 -10z m-4848 -59 c84 -56 185 -120 298 -188 239 -144 267 -161 335 -200 39
-22 122 -70 185 -105 63 -36 198 -113 299 -172 101 -58 186 -106 189 -106 3 0
31 -20 61 -43 181 -141 401 -270 689 -402 117 -54 211 -100 209 -102 -2 -2
-53 18 -113 43 -131 55 -246 96 -334 119 -74 19 -224 71 -317 109 -75 31 -90
33 -45 6 38 -23 41 -30 10 -23 -22 4 -22 3 2 -11 37 -23 11 -19 -64 9 -36 14
-66 22 -66 20 0 -22 175 -299 222 -351 36 -41 -286 133 -478 258 -299 194
-699 582 -956 927 -57 76 -113 151 -125 167 -12 16 20 -70 71 -191 161 -379
134 -334 255 -423 175 -130 309 -222 349 -240 44 -20 132 -72 132 -78 0 -2
-26 8 -57 23 -73 34 -262 157 -373 241 -47 36 -105 78 -129 93 -49 32 -61 57
-207 424 -42 105 -80 198 -85 208 -13 23 -7 22 43 -12z m6898 14 c0 -8 -4 -15
-10 -15 -5 0 -10 7 -10 15 0 8 5 15 10 15 6 0 10 -7 10 -15z m1350 -107 c-41
-103 -127 -314 -194 -471 -9 -21 -24 -41 -34 -44 -9 -3 -45 -26 -79 -50 -86
-61 -79 -46 10 20 72 54 72 55 131 183 70 155 181 437 160 409 -231 -315 -347
-450 -579 -677 -220 -215 -372 -338 -550 -445 -96 -57 -425 -243 -431 -243 -2
0 19 35 46 78 91 143 160 267 150 270 -6 2 -31 -3 -57 -12 -55 -19 -56 -19
-48 -6 3 6 1 10 -4 10 -26 0 -8 22 32 40 77 34 28 21 -86 -24 -104 -40 -153
-57 -342 -116 -90 -28 -349 -131 -448 -179 -42 -20 -76 -33 -75 -29 2 5 102
55 223 112 359 167 490 238 685 368 102 68 271 173 375 232 573 327 865 502
1045 624 58 39 108 72 111 72 4 0 -15 -55 -41 -122z m-3815 102 c3 -5 1 -10
-4 -10 -6 0 -11 5 -11 10 0 6 2 10 4 10 3 0 8 -4 11 -10z m142 4 c-3 -3 -12
-4 -19 -1 -8 3 -5 6 6 6 11 1 17 -2 13 -5z m-209 -16 c-2 -7 6 -13 18 -12 15
0 20 -5 17 -17 -5 -17 -33 -16 -33 2 0 4 -7 6 -15 3 -9 -4 -15 0 -15 9 0 13 8
20 28 26 1 1 1 -5 0 -11z m219 -20 c-3 -8 -6 -5 -6 6 -1 11 2 17 5 13 3 -3 4
-12 1 -19z m-54 -28 c-5 -19 -23 -29 -23 -12 0 7 20 32 26 32 1 0 0 -9 -3 -20z
m-58 -10 c3 -5 -1 -10 -10 -10 -9 0 -13 5 -10 10 3 6 8 10 10 10 2 0 7 -4 10
-10z m355 0 c0 -5 -2 -10 -4 -10 -3 0 -8 5 -11 10 -3 6 -1 10 4 10 6 0 11 -4
11 -10z m2110 1 c0 7 3 10 6 7 9 -10 -46 -86 -65 -91 -14 -3 -18 1 -18 20 0
17 4 23 14 19 8 -3 11 -1 8 4 -3 6 3 10 14 10 12 0 21 5 21 10 0 6 -4 10 -10
10 -5 0 -10 5 -10 10 0 7 6 7 20 0 15 -8 20 -8 20 1z m-138 -12 c15 -8 22 -8
28 0 5 9 11 7 21 -5 8 -10 9 -15 3 -11 -6 4 -23 -4 -36 -17 -21 -18 -28 -20
-42 -11 -18 14 -22 30 -5 19 8 -4 9 0 4 15 -7 24 -2 26 27 10z m-2372 -20 c0
-14 -17 -10 -23 5 -4 10 -1 13 9 9 7 -3 14 -9 14 -14z m366 -16 c-10 -10 -19
5 -10 18 6 11 8 11 12 0 2 -7 1 -15 -2 -18z m36 -38 c-9 -25 -20 -41 -24 -37
-10 10 18 82 32 82 5 0 2 -20 -8 -45z m2023 26 c9 -16 -9 -20 -23 -5 -10 12
-10 14 2 14 8 0 17 -4 21 -9z m-2115 -21 c0 -5 -4 -10 -10 -10 -5 0 -10 5 -10
10 0 6 5 10 10 10 6 0 10 -4 10 -10z m-260 -10 c0 -5 -4 -10 -10 -10 -5 0 -10
5 -10 10 0 6 5 10 10 10 6 0 10 -4 10 -10z m-1429 -141 c6 -13 6 -19 -1 -19
-12 0 -100 111 -100 125 1 12 86 -79 101 -106z m389 63 c0 -15 -2 -15 -10 -2
-13 20 -13 33 0 25 6 -3 10 -14 10 -23z m3565 8 c-3 -5 -12 -10 -18 -10 -7 0
-6 4 3 10 19 12 23 12 15 0z m55 -20 c-20 -13 -33 -13 -25 0 3 6 14 10 23 10
15 0 15 -2 2 -10z m-6278 -41 c18 -16 24 -26 13 -20 -33 17 -71 51 -58 51 7 0
27 -14 45 -31z m4440 -11 c-6 -6 -15 -9 -18 -5 -4 3 -4 14 0 23 5 13 9 15 18
6 9 -9 9 -15 0 -24z m1993 -54 c-40 -34 -65 -43 -65 -24 0 13 92 72 99 64 3
-3 -12 -21 -34 -40z m-1985 32 c0 -3 -4 -8 -10 -11 -5 -3 -10 -1 -10 4 0 6 5
11 10 11 6 0 10 -2 10 -4z m1895 -56 c-10 -11 -23 -20 -29 -20 -6 1 0 10 13
20 30 26 39 26 16 0z m-485 -32 c0 6 6 9 14 6 13 -5 19 -43 6 -42 -3 0 -12 0
-20 -1 -13 -1 -13 -2 0 -11 13 -8 12 -10 -2 -10 -10 0 -18 4 -18 9 0 5 -11 9
-25 9 -26 0 -34 -13 -12 -21 8 -3 6 -9 -8 -20 -13 -10 -22 -12 -26 -5 -4 6
-15 3 -28 -8 -12 -11 -30 -20 -41 -20 -27 -2 -36 33 -14 57 16 18 16 19 -7 20
-19 1 -20 2 -5 6 15 4 16 7 5 15 -10 7 -9 8 6 3 11 -5 32 -10 47 -13 15 -2 26
-7 23 -11 -2 -4 2 -8 10 -8 18 0 20 13 3 20 -10 4 -9 8 2 16 22 16 30 13 23
-6 -6 -16 -5 -16 10 -5 9 8 16 17 15 20 -2 21 4 23 22 7 11 -10 20 -13 20 -7z
m-450 -5 c0 -5 -20 -30 -44 -58 -33 -37 -47 -47 -56 -39 -9 9 1 23 37 58 46
44 63 54 63 39z m-805 -73 c3 -5 1 -10 -4 -10 -6 0 -11 5 -11 10 0 6 2 10 4
10 3 0 8 -4 11 -10z m1515 6 c0 -2 -12 -12 -27 -21 l-28 -18 19 21 c17 20 36
29 36 18z m-3351 -30 c-2 -2 -67 -32 -144 -65 -77 -34 -135 -57 -130 -52 6 5
55 29 110 53 55 24 111 49 125 55 25 12 47 16 39 9z m2522 -29 c-13 -13 -26
-3 -16 12 3 6 11 8 17 5 6 -4 6 -10 -1 -17z m-2443 -76 c-101 -93 -188 -164
-188 -153 0 5 10 17 23 25 12 8 65 54 117 101 52 47 99 86 104 86 5 0 -20 -27
-56 -59z m2948 17 c-3 -13 -3 -17 0 -10 9 19 23 4 17 -18 -3 -11 -12 -19 -21
-18 -8 2 -16 -5 -18 -16 -1 -10 -12 -25 -23 -33 -23 -16 -27 -39 -8 -46 6 -3
-5 -6 -26 -6 -21 -1 -48 -6 -60 -13 -12 -6 -37 -10 -56 -10 -19 1 -40 -3 -47
-9 -9 -7 -14 -4 -19 10 -3 12 -11 21 -16 21 -11 0 -8 -38 4 -58 5 -8 4 -11 -3
-10 -7 2 -17 -4 -23 -14 -21 -32 21 -55 118 -63 29 -3 109 18 130 34 5 5 23
11 38 15 44 10 258 94 300 117 21 11 41 18 43 16 3 -3 -21 -20 -53 -38 -32
-18 -76 -45 -98 -59 -102 -69 -765 -411 -793 -410 -4 1 101 55 233 121 213
107 435 226 435 234 0 1 -48 -15 -107 -37 l-108 -40 -155 37 c-85 21 -159 40
-163 42 -12 7 9 26 30 29 65 10 77 13 85 28 5 9 13 14 19 11 5 -4 9 -1 9 5 0
6 4 9 8 6 5 -3 19 9 32 26 14 19 25 26 29 19 6 -10 49 22 116 87 26 26 115 72
138 72 14 0 17 -5 13 -22z m-273 -23 c4 -8 2 -17 -3 -20 -6 -4 -10 3 -10 14 0
25 6 27 13 6z m37 5 c0 -5 -4 -10 -10 -10 -5 0 -10 5 -10 10 0 6 5 10 10 10 6
0 10 -4 10 -10z m-4985 -89 c86 -53 205 -105 315 -140 19 -6 54 -22 78 -36 38
-22 48 -23 93 -15 27 5 57 14 67 18 9 5 46 14 82 21 36 6 79 14 95 17 21 4 27
3 20 -5 -6 -6 -78 -26 -160 -46 l-149 -36 -76 32 c-41 17 -103 44 -137 60 -35
15 -63 26 -63 24 0 -2 28 -19 63 -38 175 -96 333 -180 432 -232 61 -31 115
-61 120 -67 16 -15 -63 20 -160 72 -49 26 -151 79 -225 118 -136 70 -179 95
-346 200 -91 57 -164 111 -153 112 4 0 50 -27 104 -59z m6951 -37 c-63 -212
-164 -530 -228 -720 l-71 -211 -145 -72 c-79 -40 -147 -70 -150 -67 -3 4 0 6
7 6 7 0 10 4 6 10 -8 12 52 43 68 34 7 -4 9 -3 4 1 -7 8 84 69 150 100 24 11
35 25 43 54 21 80 151 426 160 429 6 2 8 8 5 13 -7 10 101 345 154 483 22 57
20 18 -3 -60z m-117 12 c-2 -2 -15 -9 -29 -15 -24 -11 -24 -11 -6 3 16 13 49
24 35 12z m-5764 -26 c12 0 41 -6 66 -14 24 -8 125 -37 224 -65 99 -27 268
-75 376 -105 108 -31 204 -56 212 -56 19 0 459 -327 612 -454 61 -51 128 -106
151 -123 l41 -32 75 62 c174 144 302 244 448 349 85 62 179 131 209 154 30 24
58 41 62 39 3 -3 44 6 90 19 99 28 576 154 634 168 22 5 49 11 60 14 16 4 17
3 5 -5 -8 -5 -110 -35 -225 -66 -116 -31 -259 -71 -320 -89 -60 -18 -139 -39
-174 -46 -82 -17 -123 -50 -383 -310 -130 -130 -199 -192 -202 -183 -4 9 -2
11 7 7 8 -5 7 -2 -2 9 -14 18 -26 23 -16 8 3 -5 1 -12 -5 -16 -10 -6 -13 3
-13 38 0 11 -3 14 -11 8 -6 -4 -51 -39 -99 -77 -49 -38 -101 -79 -117 -92
l-28 -23 -63 51 c-152 119 -223 173 -211 157 15 -17 9 -37 -11 -37 -7 0 -6 4
3 10 11 7 12 10 2 10 -8 0 -16 -8 -18 -17 -3 -14 -34 10 -127 100 -67 65 -177
168 -244 229 -111 102 -127 113 -185 128 -35 10 -130 38 -213 63 -233 70 -613
177 -630 177 -31 0 -13 -20 74 -84 174 -128 680 -436 716 -436 7 0 431 -236
457 -254 52 -37 -3 -10 -204 101 -117 64 -256 136 -308 161 -107 51 -515 308
-660 416 -79 59 -96 76 -98 101 -3 24 -1 28 9 18 7 -7 23 -13 34 -13z m4265
10 c0 -5 -4 -10 -10 -10 -5 0 -10 5 -10 10 0 6 5 10 10 10 6 0 10 -4 10 -10z
m-5370 -10 c0 -5 -5 -10 -11 -10 -5 0 -7 5 -4 10 3 6 8 10 11 10 2 0 4 -4 4
-10z m4531 -4 c-6 -8 -10 -20 -9 -27 3 -13 -222 -169 -445 -308 -56 -35 -128
-80 -159 -100 -32 -20 -58 -43 -58 -51 0 -12 -2 -12 -9 -2 -6 11 -53 -9 -207
-88 -157 -81 -392 -205 -446 -237 -5 -2 -8 -2 -8 1 0 5 379 216 508 282 l91
46 -35 24 c-19 13 -46 24 -60 24 l-25 0 28 26 c15 15 21 21 11 15 -28 -20 -29
4 -3 51 29 52 59 80 100 96 46 18 245 64 291 67 23 2 70 15 105 30 134 55 194
76 179 62 -8 -8 -76 -51 -150 -97 -223 -137 -215 -131 -197 -141 17 -10 108
42 350 201 124 81 150 109 105 111 -18 0 -16 3 12 14 45 17 44 17 31 1z
m-3568 -108 c30 -51 67 -118 83 -148 26 -49 39 -61 122 -112 52 -31 97 -60
100 -63 10 -11 -57 24 -98 51 -19 12 -55 33 -80 47 -26 15 -47 34 -51 48 -3
13 -21 51 -39 84 -74 132 -101 185 -96 185 2 0 29 -42 59 -92z m4177 65 c0 -5
-5 -15 -10 -23 -7 -12 -9 -10 -7 8 1 19 17 33 17 15z m-6050 -93 c80 -35 150
-66 155 -70 15 -10 221 -83 359 -127 66 -21 121 -43 123 -49 3 -8 -9 -8 -39 2
-24 8 -110 37 -193 64 -202 66 -238 79 -320 115 -90 39 -277 134 -290 147 -11
10 -12 11 205 -82z m7614 79 c-7 -12 -329 -171 -354 -175 -8 -2 -62 -21 -120
-44 -129 -50 -339 -114 -347 -106 -3 3 0 8 8 10 8 3 82 27 164 54 161 53 281
97 305 113 8 5 26 14 40 19 14 6 88 39 165 75 77 36 141 65 143 65 2 0 0 -5
-4 -11z m-7925 -61 c29 -35 112 -126 184 -203 100 -108 110 -120 43 -55 -73
70 -147 153 -274 303 -8 9 -13 17 -10 17 3 0 28 -28 57 -62z m1848 42 c-1 -11
-7 -20 -14 -20 -16 0 -16 7 0 25 16 19 16 18 14 -5z m3968 -109 c-36 -66 -65
-125 -65 -131 0 -5 -7 -10 -16 -10 -13 0 -13 5 4 33 41 67 62 102 68 117 14
30 68 119 71 116 2 -2 -26 -58 -62 -125z m-3310 79 c86 -38 387 -161 454 -185
53 -19 69 -31 93 -67 16 -24 39 -51 51 -60 21 -17 19 -18 -61 -18 l-84 0 -76
53 c-43 30 -156 104 -252 166 -96 61 -186 121 -200 131 l-25 20 25 -9 c14 -5
48 -19 75 -31z m4830 -120 c-3 -5 -14 -10 -23 -10 -15 0 -15 2 -2 10 20 13 33
13 25 0z m-703 -105 c-2 -14 -8 -25 -13 -25 -10 0 -12 34 -2 43 13 14 20 6 15
-18z m-5197 -15 c8 -13 -5 -13 -25 0 -13 8 -13 10 2 10 9 0 20 -4 23 -10z
m-1421 -146 c120 -350 134 -386 159 -403 31 -19 170 -124 274 -204 41 -32 72
-61 69 -65 -4 -3 4 -17 16 -30 32 -34 -56 23 -257 166 l-160 114 -47 147 c-58
176 -94 311 -101 369 -3 24 -3 42 -1 39 2 -2 24 -62 48 -133z m2076 81 c14 -8
21 -14 15 -14 -5 0 -21 6 -35 14 -14 8 -20 14 -15 14 6 0 21 -6 35 -14z m120
-55 c22 -11 40 -23 40 -25 0 -7 -113 44 -125 56 -13 13 29 -2 85 -31z m-1865
-20 c10 -11 16 -20 13 -20 -3 0 -13 9 -23 20 -10 11 -16 20 -13 20 3 0 13 -9
23 -20z m5465 5 c-14 -8 -29 -14 -35 -14 -5 0 1 6 15 14 14 8 30 14 35 14 6 0
-1 -6 -15 -14z m1225 -114 c3 -5 1 -12 -5 -16 -5 -3 -10 1 -10 9 0 18 6 21 15
7z m-4724 -101 c41 -86 50 -139 9 -60 -23 44 -65 158 -55 148 3 -3 24 -43 46
-88z m3425 -24 c-14 -29 -26 -56 -26 -60 0 -4 24 -5 53 -1 87 9 311 24 315 20
6 -6 -99 -135 -111 -135 -6 0 1 12 14 28 14 15 33 39 42 54 l17 27 -28 -9
c-39 -13 -147 -27 -302 -40 -74 -6 -261 -22 -415 -35 -154 -14 -309 -27 -345
-30 -101 -9 -806 -45 -990 -51 -91 -4 -248 -1 -350 5 -102 6 -292 16 -424 23
l-238 12 -20 -25 -20 -24 17 30 c39 71 11 66 311 48 508 -31 929 -23 1619 32
171 13 402 31 515 40 113 9 232 18 265 21 l61 6 29 70 c16 38 31 65 33 58 2
-6 -8 -35 -22 -64z m1137 67 c-7 -2 -21 -2 -30 0 -10 3 -4 5 12 5 17 0 24 -2
18 -5z m-5948 -13 c4 -6 -9 -10 -32 -10 -28 0 -34 3 -23 10 20 13 47 13 55 0z
m645 -36 c260 -33 902 -118 982 -130 31 -5 41 -13 63 -50 14 -24 23 -49 20
-54 -4 -6 -2 -9 4 -8 15 4 64 -79 51 -87 -6 -4 -10 -3 -9 2 3 20 -2 34 -10 28
-6 -3 -15 4 -21 15 -6 11 -8 20 -5 20 3 0 -3 8 -12 18 -10 9 -27 29 -38 43
-20 26 -27 27 -390 73 -296 37 -933 120 -980 128 -5 0 13 4 40 7 l50 6 -90 17
-90 17 80 -5 c44 -3 204 -21 355 -40z m5190 31 c-36 -7 -126 -20 -200 -29 -74
-10 -157 -21 -185 -25 -47 -8 -46 -8 28 -8 43 0 81 -3 84 -7 3 -3 -14 -6 -38
-6 -24 -1 -62 -3 -84 -6 -22 -3 -73 -9 -114 -15 -83 -10 -108 -2 -90 32 7 13
21 19 45 19 40 0 375 37 449 49 28 5 77 9 110 9 l60 0 -65 -13z m-5697 -12
c-7 -2 -21 -2 -30 0 -10 3 -4 5 12 5 17 0 24 -2 18 -5z m-421 -93 c45 -36 127
-109 183 -164 64 -62 75 -76 31 -37 -38 33 -72 58 -76 56 -5 -3 -7 -23 -6 -45
3 -40 3 -40 -18 -23 -12 10 -59 54 -106 99 -47 44 -107 100 -133 124 -51 46
-49 58 8 56 26 -1 54 -17 117 -66z m5936 43 c-10 -2 -28 -2 -40 0 -13 2 -5 4
17 4 22 1 32 -1 23 -4z m-6294 -42 c11 -12 14 -21 7 -26 -14 -8 -28 1 -41 26
-14 26 10 26 34 0z m7474 -8 c-2 -10 -10 -18 -18 -18 -8 0 -16 8 -18 18 -2 12
3 17 18 17 15 0 20 -5 18 -17z m-1006 -275 c-97 -110 -190 -217 -207 -237 -16
-20 -87 -102 -158 -184 l-128 -147 113 -156 c210 -289 283 -392 398 -563 63
-94 123 -174 133 -177 9 -3 17 -14 17 -25 0 -11 31 -68 68 -127 38 -59 71
-112 75 -118 3 -6 -78 18 -181 53 -204 70 -505 163 -531 163 -9 1 -43 43 -80
103 -36 56 -112 178 -170 270 -136 216 -162 263 -155 282 5 13 9 13 22 3 12
-10 11 -6 -3 15 -21 33 -26 30 -32 -19 -2 -21 -20 -59 -41 -89 -51 -72 -217
-278 -281 -347 -47 -51 -54 -56 -79 -48 -15 5 -106 18 -202 30 -96 11 -192 23
-212 26 l-36 6 38 38 c21 21 73 82 116 137 43 54 137 168 209 253 72 85 145
173 162 196 l32 40 -81 90 c-100 109 -424 442 -495 507 -29 26 -53 50 -53 52
0 3 26 5 58 5 55 0 449 35 504 44 22 4 37 -6 96 -67 38 -40 116 -125 173 -190
91 -104 104 -115 113 -99 6 10 87 111 179 225 l169 205 71 6 c40 4 167 15 282
25 116 10 225 19 242 20 32 1 27 -5 -145 -201z m-5457 177 c289 -22 470 -37
473 -40 1 -1 -13 -112 -33 -246 -52 -355 -72 -498 -89 -644 -9 -71 -23 -186
-31 -255 -24 -195 -45 -414 -45 -459 0 -25 -5 -43 -12 -45 -56 -14 -234 -77
-330 -117 -64 -27 -122 -49 -129 -49 -7 0 -21 -7 -31 -17 -10 -9 -19 -14 -21
-12 -2 2 0 69 4 149 5 87 4 146 -2 148 -13 5 -11 23 4 41 9 10 22 96 36 231
23 211 93 721 131 953 11 65 20 127 20 138 0 11 -46 64 -112 129 l-113 110 45
0 c25 0 131 -7 235 -15z m790 -74 c99 -11 213 -23 253 -27 l73 -6 21 -42 c11
-22 53 -97 93 -166 39 -69 102 -180 140 -247 37 -68 69 -123 70 -123 2 0 59
78 126 173 68 94 152 212 188 260 l65 89 60 -6 c47 -5 404 -25 461 -26 6 0 -3
-8 -20 -19 -71 -44 -68 -31 -82 -374 -7 -172 -18 -430 -24 -573 l-12 -261 -81
-6 c-45 -4 -137 -11 -205 -17 -68 -6 -124 -9 -126 -8 -1 2 6 131 16 288 10
157 18 309 18 339 l1 54 -53 -74 c-30 -41 -120 -166 -200 -279 -81 -113 -153
-213 -161 -222 -15 -20 -26 -23 -26 -7 0 6 -29 61 -63 122 -35 62 -90 162
-122 222 -64 123 -126 227 -132 222 -1 -2 -10 -75 -18 -163 -8 -87 -22 -206
-30 -264 -8 -58 -17 -150 -21 -206 l-6 -100 -127 -23 c-69 -12 -160 -28 -201
-36 -41 -8 -91 -17 -111 -21 l-35 -6 47 374 c103 821 111 898 104 936 -9 48
-68 176 -101 219 l-26 34 34 -5 c18 -3 114 -15 213 -25z m809 -36 c-9 -14 -18
-25 -21 -25 -5 0 5 18 20 38 17 22 18 13 1 -13z m-153 -110 c8 -16 6 -15 -10
4 -12 13 -21 28 -21 35 0 12 14 -5 31 -39z m1937 18 c6 -16 38 -93 72 -173
110 -259 380 -938 380 -957 0 -2 -4 -3 -10 -3 -5 0 -10 8 -10 19 0 10 -7 24
-15 31 -13 11 -15 7 -15 -24 0 -20 5 -36 11 -36 10 0 -7 -27 -53 -83 l-23 -28
-147 12 -146 12 -7 34 c-3 19 -21 73 -39 121 l-33 87 -258 3 c-226 2 -256 4
-245 17 7 8 21 15 31 15 11 0 19 5 19 10 0 11 -59 11 -105 0 l-30 -7 30 -8
c24 -7 26 -9 11 -15 -11 -3 -32 -41 -55 -95 -56 -136 -42 -125 -162 -131 -57
-2 -157 -8 -221 -12 -65 -4 -118 -5 -118 -1 0 3 13 18 29 33 15 15 40 57 54
94 14 37 42 110 62 162 32 82 109 274 135 335 72 167 160 403 160 430 0 44
-14 80 -50 125 l-30 38 313 9 c509 16 453 17 465 -14z m-4369 -348 c56 -219
104 -389 96 -336 -5 33 -5 33 29 27 22 -4 37 -2 42 5 4 7 3 9 -3 6 -5 -3 -9 4
-9 15 1 15 -7 24 -22 27 -13 3 -23 10 -22 15 1 5 -4 13 -12 17 -10 7 -10 9 0
10 6 1 18 2 25 3 8 1 11 16 9 46 -2 24 -1 42 1 40 2 -3 30 -111 62 -240 l58
-235 54 -59 c29 -33 53 -62 53 -66 0 -3 -11 -7 -26 -8 -15 -1 -23 2 -19 8 4 6
11 7 17 4 7 -4 8 -2 4 5 -6 9 -11 9 -22 0 -28 -23 -36 -49 -22 -67 11 -13 11
-14 -2 -7 -8 5 0 -10 18 -33 19 -23 37 -44 42 -47 5 -3 19 -20 31 -38 17 -25
11 -22 -24 14 -26 26 -86 81 -135 123 -64 54 -90 82 -90 98 0 44 -152 714
-198 873 -4 14 -3 17 4 10 6 -5 33 -100 61 -210z m718 173 c-3 -8 -6 -5 -6 6
-1 11 2 17 5 13 3 -3 4 -12 1 -19z m6693 -208 c-99 -373 -161 -630 -155 -640
5 -9 -52 -62 -136 -128 -37 -29 -84 -75 -105 -102 -21 -28 -40 -50 -41 -50
-12 0 38 72 78 115 53 56 53 60 -5 105 -18 13 -19 13 -11 0 4 -8 4 -12 0 -7
-5 4 -20 0 -34 -9 -14 -9 11 21 56 68 l83 83 24 95 c37 144 107 394 112 399 2
2 4 -1 4 -8 0 -7 4 -10 9 -6 5 3 16 -1 24 -9 13 -13 14 -11 13 14 -1 16 -5 32
-9 36 -12 12 -8 24 8 24 8 0 15 -5 15 -11 0 -5 4 -8 8 -5 5 3 6 -15 2 -39 -12
-80 4 -48 44 83 56 187 68 224 72 220 1 -2 -24 -105 -56 -228z m-7703 128 c13
-12 21 -23 19 -26 -7 -7 -123 58 -143 80 -16 17 -11 17 42 -7 33 -14 70 -36
82 -47z m979 -121 c-14 -83 -28 -177 -31 -207 -4 -30 -17 -113 -30 -185 -20
-108 -54 -321 -104 -635 -15 -92 -12 -13 4 115 31 246 31 225 5 225 -21 0 -22
2 -15 57 4 31 10 66 15 77 4 12 15 75 24 141 20 144 39 237 44 213 3 -15 32
-27 32 -14 0 2 16 84 35 182 19 98 36 187 36 199 1 17 2 17 6 2 2 -9 -7 -86
-21 -170z m6354 128 c-7 -8 -9 -15 -5 -15 4 0 -32 -27 -81 -60 -88 -59 -118
-74 -94 -45 10 12 10 15 -3 15 -10 0 -15 -7 -12 -19 4 -23 0 -27 -77 -70 -67
-38 -79 -34 -14 4 23 14 51 34 62 46 18 20 18 20 -11 9 l-30 -10 25 19 c42 34
180 103 180 91 0 -6 5 -8 10 -5 6 4 8 10 5 15 -3 5 7 16 22 24 36 19 38 19 23
1z m-360 -240 c0 -2 -10 -9 -22 -15 -22 -11 -22 -10 -4 4 21 17 26 19 26 11z
m195 -363 c-19 -188 -36 -305 -42 -298 -5 5 20 261 39 411 19 141 21 62 3
-113z m1045 -89 c-1 -14 -149 -96 -185 -103 -3 0 -23 -7 -46 -15 -96 -34 -87
-12 19 47 105 58 213 94 212 71z m-520 -88 c-33 -19 -50 -18 -26 0 11 8 27 15
35 15 10 -1 7 -6 -9 -15z m42 -222 c15 -39 18 -55 10 -67 -4 -6 -8 -20 -9 -31
-4 -46 -9 -61 -23 -72 -11 -8 -17 -8 -22 0 -5 9 -15 9 -37 0 -20 -7 -31 -8
-33 -1 -5 15 -109 14 -136 -1 -26 -14 -27 -10 -7 30 9 17 21 27 27 23 6 -4 24
-8 39 -9 33 -3 71 33 74 67 1 17 11 26 35 34 18 6 37 21 41 33 11 29 27 26 41
-6z m-700 -7 c7 4 8 2 4 -5 -9 -13 -26 -5 -25 12 0 9 2 8 6 -1 2 -6 10 -9 15
-6z m-6934 -71 c36 -22 41 -35 13 -35 -20 0 -81 45 -81 61 0 10 23 1 68 -26z
m7009 -4 c6 -23 63 -88 63 -73 0 4 7 -1 14 -11 10 -12 11 -28 6 -52 -4 -19 -5
-36 -2 -39 3 -4 1 -6 -4 -6 -5 0 -38 46 -73 101 -46 74 -60 104 -50 109 19 12
39 0 46 -29z m-3009 -47 c-3 -3 -2 -22 3 -42 4 -20 9 -65 10 -99 1 -47 5 -60
15 -56 14 5 13 -25 -1 -118 -2 -14 1 -32 8 -38 9 -10 8 -16 -8 -27 -15 -11
-17 -17 -7 -23 9 -6 13 -34 12 -102 -1 -52 3 -107 9 -122 7 -17 7 -26 1 -22
-10 6 -15 -24 -11 -55 1 -8 2 -33 3 -55 0 -33 1 -35 5 -10 3 17 11 38 20 47
22 24 68 6 82 -33 9 -26 13 -29 29 -20 11 6 22 7 26 4 3 -4 12 2 20 12 9 13
15 15 20 6 4 -6 0 -14 -9 -17 -9 -4 -14 -13 -11 -21 4 -8 -3 -26 -14 -40 -18
-23 -28 -63 -15 -63 13 0 55 24 55 32 0 5 6 6 13 1 18 -11 61 -3 70 13 4 8 13
14 18 14 6 0 7 -4 4 -10 -3 -5 -4 -10 -1 -10 10 0 37 61 31 70 -9 14 9 12 23
-2 9 -9 16 -7 32 7 30 27 25 92 -7 100 -28 7 -29 16 -4 39 14 13 28 16 56 10
21 -4 32 -10 26 -14 -18 -10 4 -23 74 -44 33 -10 80 -28 105 -39 l45 -20 -34
-10 c-27 -9 -40 -7 -63 6 -16 9 -37 17 -47 17 -9 0 -23 6 -29 12 -10 10 -15
10 -22 -2 -18 -28 -11 -60 15 -72 14 -6 25 -15 25 -20 0 -4 6 -8 13 -8 15 0
45 -37 71 -87 9 -19 27 -35 41 -39 13 -3 23 -11 22 -16 -1 -6 11 -14 26 -19
22 -6 33 -3 48 12 22 22 21 23 82 -33 16 -14 35 -25 41 -24 6 1 2 -2 -10 -7
-28 -13 -53 -68 -43 -96 8 -21 39 -30 39 -11 0 6 4 10 9 10 5 0 7 -9 4 -20 -4
-15 0 -20 16 -20 22 0 46 -30 56 -72 4 -14 17 -36 30 -48 22 -20 24 -21 61 -5
21 9 41 20 45 26 4 7 11 6 20 -3 21 -20 47 -21 52 -1 3 14 8 10 18 -14 7 -18
20 -33 27 -33 8 0 12 -6 9 -15 -4 -8 -2 -17 2 -19 7 -5 20 -54 26 -101 10 -76
35 -115 72 -115 12 0 23 -4 23 -10 0 -5 6 -10 14 -10 14 0 25 -22 30 -58 3
-19 35 -42 58 -42 11 0 23 -11 29 -27 6 -16 16 -37 21 -47 9 -17 7 -18 -22
-12 -32 6 -32 6 -26 -26 8 -41 115 -230 126 -223 5 3 11 1 14 -4 4 -5 2 -12
-4 -16 -14 -9 -12 -32 6 -71 12 -25 23 -34 40 -34 25 0 31 -9 14 -26 -6 -6 -5
-15 1 -24 8 -11 12 -12 16 -2 2 7 25 38 51 70 25 31 49 62 54 69 6 7 4 28 -3
53 -10 33 -10 46 -1 61 8 12 10 36 6 64 -3 28 -2 45 5 45 16 0 25 -22 11 -30
-10 -6 -7 -11 9 -21 11 -8 21 -22 21 -32 0 -28 28 -32 50 -7 11 13 20 29 20
37 0 7 7 13 15 13 19 0 38 36 30 60 -5 15 -2 18 8 14 10 -3 30 15 60 53 44 57
77 91 77 80 0 -4 -14 -23 -32 -42 -32 -37 -45 -92 -22 -92 7 0 11 4 8 8 -2 4
2 14 10 22 9 8 12 24 9 36 -7 29 13 27 33 -4 13 -20 19 -23 31 -14 7 7 68 88
134 180 66 93 122 169 125 169 7 0 -2 -14 -39 -67 -17 -24 -26 -46 -22 -54 5
-7 4 -10 -3 -5 -7 4 -36 -30 -73 -86 -34 -51 -78 -112 -96 -137 -35 -45 -38
-76 -10 -109 9 -12 12 -11 17 4 6 15 14 9 45 -33 l38 -52 41 21 c45 23 121 79
238 175 107 89 134 154 141 343 l3 69 44 32 c25 18 74 58 110 89 80 69 96 80
87 56 -5 -13 -1 -19 13 -23 20 -5 25 -15 13 -26 -3 -4 -12 -2 -19 4 -19 15
-28 -29 -14 -65 6 -16 8 -43 4 -62 -5 -26 -11 -33 -33 -36 -33 -4 -40 -37 -11
-63 11 -10 20 -23 20 -28 0 -6 10 -22 23 -35 l22 -25 -23 6 c-19 4 -22 2 -17
-11 9 -22 9 -25 0 -95 -7 -52 -6 -57 10 -51 15 6 16 5 4 -15 -8 -11 -20 -21
-28 -21 -7 0 -23 -10 -33 -22 l-20 -23 7 35 c7 31 6 33 -9 21 -8 -7 -13 -18
-10 -25 3 -6 -2 -2 -10 8 -15 18 -14 22 9 46 26 27 33 50 15 50 -5 0 -10 7
-10 16 0 14 -3 14 -15 4 -8 -7 -15 -28 -15 -47 0 -20 -4 -32 -10 -28 -14 8
-13 2 6 -45 16 -38 15 -42 -1 -54 -15 -11 -16 -16 -5 -36 9 -18 14 -20 21 -9
6 11 11 11 20 2 22 -22 -87 -163 -126 -163 -36 0 -41 -54 -6 -65 10 -3 18 -12
18 -20 0 -15 -25 -24 -107 -40 -19 -4 -47 -16 -61 -26 -18 -12 -49 -19 -105
-21 -44 -2 -84 -7 -89 -10 -11 -7 -72 -1 -86 8 -5 3 -12 -2 -15 -10 -8 -21 34
-79 52 -72 8 3 14 1 14 -4 0 -6 5 -10 11 -10 5 0 8 4 5 9 -8 13 4 41 17 41 8
0 7 -4 -1 -12 -7 -7 -8 -17 -1 -30 5 -10 7 -18 5 -18 -9 0 23 -81 38 -96 15
-14 12 -37 -7 -62 -9 -11 -12 -10 -19 2 -5 9 -6 21 -3 27 4 5 1 16 -5 24 -15
18 -47 20 -52 4 -2 -6 -34 15 -71 46 l-68 58 -64 -18 c-36 -9 -68 -21 -71 -26
-2 -5 -22 -13 -44 -19 -37 -10 -38 -12 -33 -45 5 -34 -10 -51 -20 -22 -2 6 -8
9 -12 5 -14 -13 14 -126 41 -168 34 -51 25 -75 -29 -75 -19 0 -39 -3 -43 -7
-4 -4 -13 -3 -20 2 -6 6 -18 9 -25 8 -8 -2 -12 3 -10 12 8 37 -5 126 -21 147
-13 17 -74 -15 -128 -66 -23 -22 -39 -33 -36 -25 4 9 -2 14 -15 14 -14 0 -19
-5 -16 -15 9 -23 -39 -55 -73 -48 -16 3 -44 3 -62 -1 -56 -11 -71 -77 -15 -68
26 5 20 -6 -14 -24 -17 -8 -28 -11 -25 -6 3 6 -8 14 -26 17 -21 5 -33 4 -36
-4 -3 -9 -7 -9 -18 0 -11 9 -15 8 -20 -5 -3 -8 -21 -18 -40 -22 -19 -3 -34
-12 -34 -19 0 -18 37 -48 49 -40 6 3 11 2 11 -4 0 -5 -5 -13 -10 -16 -8 -5 -8
-11 -1 -19 6 -7 8 -15 5 -19 -7 -6 -44 29 -44 42 0 18 -32 41 -57 41 -28 0
-91 -42 -153 -103 -21 -20 -48 -37 -59 -37 -11 0 -23 -5 -26 -10 -4 -6 -12
-10 -18 -8 -7 1 -35 -10 -63 -25 -37 -19 -55 -35 -65 -59 l-13 -33 -3 28 c-3
15 -6 27 -8 27 -13 0 -64 -27 -83 -44 -20 -18 -24 -18 -32 -6 -7 11 -10 12
-10 2 0 -7 -7 -20 -15 -28 -18 -18 -20 -4 -2 15 24 26 -36 -11 -198 -122 -135
-92 -224 -159 -177 -133 6 4 12 2 12 -3 0 -6 -5 -11 -11 -11 -5 0 -7 -4 -4
-10 3 -5 2 -10 -4 -10 -6 0 -8 -6 -5 -14 3 -8 0 -24 -6 -36 -8 -15 -8 -20 -1
-16 6 4 11 2 11 -4 0 -7 7 -10 14 -7 10 4 13 1 9 -9 -3 -7 -9 -14 -15 -14 -5
0 -7 -4 -4 -8 3 -5 -4 -15 -15 -22 -10 -8 -19 -18 -19 -21 0 -8 21 5 282 176
93 61 201 130 240 155 39 25 134 87 212 138 77 52 134 87 126 79 -24 -24 -249
-178 -790 -542 -124 -83 -269 -182 -322 -218 l-98 -67 -72 46 c-227 145 -736
489 -890 601 -49 35 -135 95 -193 133 -95 64 -321 229 -455 334 -85 67 -108
79 -136 73 -18 -3 -22 -1 -15 6 15 15 14 27 -1 22 -7 -3 -21 8 -30 25 -22 38
-31 38 -50 -3 -14 -29 -21 -33 -57 -34 -45 -2 -55 19 -13 25 16 3 21 9 18 25
-3 12 -5 30 -5 40 -1 9 -8 17 -17 17 -11 0 -13 6 -9 19 4 14 -1 23 -16 32 -19
10 -25 9 -40 -9 l-17 -21 -12 29 c-7 17 -25 45 -41 62 l-28 32 -35 -17 c-31
-14 -36 -15 -36 -2 0 8 -7 15 -15 15 -8 0 -15 -3 -15 -7 0 -11 -79 -48 -86
-41 -3 4 4 9 16 13 12 4 19 13 18 23 -2 13 3 16 23 14 17 -2 29 3 32 12 4 9
17 16 31 16 14 0 28 5 32 11 9 15 -16 30 -40 25 -11 -3 -26 4 -36 17 -16 20
-22 21 -49 10 -17 -6 -31 -8 -31 -3 0 4 -7 11 -16 14 -12 5 -15 2 -10 -9 3 -9
1 -15 -7 -14 -6 1 -23 1 -36 0 -24 -1 -24 -1 -5 -16 19 -14 19 -14 -1 -15 -12
0 -27 -6 -34 -12 -11 -11 -12 -9 -6 10 9 30 -32 82 -77 96 -26 9 -32 16 -30
35 3 28 -12 46 -93 114 -40 34 -59 56 -57 69 2 13 -3 18 -18 18 -15 0 -22 8
-27 31 -3 17 -14 36 -24 42 -11 7 -19 17 -19 23 0 7 -11 19 -25 28 -14 9 -23
21 -21 25 3 5 -3 16 -13 25 -13 12 -21 14 -26 6 -5 -8 -10 -8 -20 0 -8 7 -18
9 -23 7 -13 -9 -28 6 -39 38 -5 17 -19 34 -31 40 -13 6 -20 16 -17 25 3 9 -9
24 -30 39 -19 13 -35 27 -35 32 0 13 19 21 32 12 22 -13 50 -14 64 -2 15 12
20 51 6 47 -4 -2 -7 2 -7 7 0 6 4 9 8 7 24 -8 -25 90 -58 116 -14 11 -25 30
-25 42 0 26 -18 62 -36 73 -8 4 -14 18 -14 31 0 30 -26 54 -42 38 -8 -8 -7
-13 5 -18 33 -12 16 -24 -26 -18 -67 10 -99 53 -62 84 8 7 15 19 15 27 0 10
16 1 44 -25 24 -22 54 -45 67 -52 31 -17 229 -171 229 -179 7 -259 20 -297
127 -379 110 -85 292 -210 343 -236 25 -13 75 -43 112 -67 129 -84 209 -134
216 -134 4 -1 22 -9 41 -19 22 -12 31 -13 25 -4 -25 41 -91 133 -207 287 -159
208 -184 244 -280 386 -90 135 -93 140 -79 131 7 -4 42 -51 79 -104 146 -211
316 -426 327 -414 3 3 6 0 6 -7 0 -7 8 -11 18 -10 36 3 43 -1 37 -21 -7 -21 1
-25 24 -11 8 6 11 17 6 32 -9 30 25 -8 141 -160 45 -58 85 -105 90 -104 5 1
17 5 27 8 22 9 24 -20 2 -33 -14 -7 -13 -10 4 -26 18 -17 19 -16 35 26 9 24
18 72 20 107 3 57 7 68 34 90 36 31 82 103 88 140 3 14 9 28 15 29 5 2 9 12 9
23 0 19 12 28 42 33 23 3 78 46 78 61 0 7 4 15 8 17 13 5 102 119 102 131 0 6
11 23 25 37 13 14 26 34 28 45 1 11 6 26 10 33 5 7 7 22 6 35 -2 22 20 68 52
110 14 18 19 19 33 8 13 -11 25 -10 70 4 52 16 76 41 62 63 -2 4 10 6 27 4 39
-4 73 18 64 42 -7 19 -37 22 -37 4 0 -9 -3 -9 -9 1 -8 12 -12 12 -25 2 -13
-11 -17 -11 -22 3 -3 9 -1 22 5 30 6 7 8 16 4 19 -3 4 -2 7 3 7 6 0 15 -5 22
-12 9 -9 21 -8 53 2 33 11 45 11 61 1 15 -10 23 -10 34 0 9 7 37 12 64 10 26
-1 51 3 55 9 3 5 25 10 49 10 23 0 51 7 62 15 13 10 14 14 5 15 -10 0 -12 12
-9 52 4 36 1 63 -10 85 -14 29 -44 50 -64 45 -12 -3 -9 16 3 24 8 4 8 9 0 17
-13 13 -14 27 -2 27 5 0 14 -13 21 -30 7 -16 17 -30 22 -30 5 0 6 5 2 11 -5 8
1 10 21 7 21 -4 29 -1 32 13 3 11 9 19 14 19 13 0 11 -28 -2 -32 -7 -2 -9 -13
-4 -27 4 -12 9 -20 12 -17 4 3 12 1 20 -5 21 -18 63 -19 70 -3 7 19 23 18 23
-1 0 -26 47 -37 80 -20 17 9 27 21 24 28 -8 22 21 40 44 28 20 -10 20 -9 6 41
-7 29 -12 53 -11 54 7 8 25 -17 49 -68 15 -32 34 -58 41 -58 19 0 47 59 52
110 3 25 10 57 16 72 6 16 9 37 6 48 -3 11 -1 18 3 15 13 -8 8 39 -5 47 -7 5
-6 15 4 30 22 35 31 76 18 81 -9 3 -9 10 0 25 8 13 13 57 13 104 0 126 0 127
12 226 12 104 9 101 108 105 53 2 56 4 83 45 16 23 31 42 35 42 3 0 3 -2 0 -6z
m-3500 -71 c16 -48 -3 -50 -22 -3 -9 22 -16 46 -16 52 0 20 26 -14 38 -49z
m4042 13 c108 -21 215 -36 254 -36 45 0 86 -37 75 -68 -10 -27 1 -26 -195 -3
-87 11 -192 23 -231 26 -40 4 -73 9 -73 11 0 3 9 23 20 44 24 46 33 48 150 26z
m2808 -57 c-18 -12 -22 5 -6 33 l13 23 3 -24 c2 -13 -2 -27 -10 -32z m-3308 5
c0 -8 -5 -12 -10 -9 -6 4 -8 11 -5 16 9 14 15 11 15 -7z m-3343 -31 c-3 -10
-5 -4 -5 12 0 17 2 24 5 18 2 -7 2 -21 0 -30z m4606 -154 c23 19 28 -2 9 -39
-21 -41 -36 -44 -40 -7 -3 21 -9 27 -28 27 -26 0 -27 1 -18 24 6 14 9 14 34
-1 23 -13 32 -14 43 -4z m1994 -5 c-3 -3 -12 -4 -19 -1 -8 3 -5 6 6 6 11 1 17
-2 13 -5z m-6633 -26 c8 27 -4 -150 -19 -287 -8 -69 -13 -126 -11 -128 2 -3
31 9 65 26 73 38 81 38 51 6 -21 -22 -22 -28 -10 -49 9 -18 23 -26 49 -28 35
-3 34 -4 -59 -55 -130 -71 -137 -77 -121 -96 7 -9 9 -22 5 -28 -4 -7 -3 -9 4
-5 19 12 8 -48 -11 -63 -14 -9 -16 -16 -8 -24 6 -6 11 -15 11 -20 0 -5 -11 5
-25 21 -28 33 -31 48 -12 55 9 3 9 10 -2 30 -11 20 -20 26 -34 21 -17 -5 -19
-3 -13 20 4 18 -1 41 -19 76 -31 61 -31 74 -1 36 l24 -29 6 29 c3 16 10 74 16
129 12 110 38 304 46 347 5 27 6 27 34 13 26 -13 29 -13 34 3z m3396 -68 c0
-5 -4 -10 -10 -10 -5 0 -10 5 -10 10 0 6 5 10 10 10 6 0 10 -4 10 -10z m1240
0 c0 -5 -7 -10 -16 -10 -8 0 -12 5 -9 10 3 6 10 10 16 10 5 0 9 -4 9 -10z
m-1840 -40 c0 -5 -4 -10 -10 -10 -5 0 -10 5 -10 10 0 6 5 10 10 10 6 0 10 -4
10 -10z m240 0 c0 -5 -2 -10 -4 -10 -3 0 -8 5 -11 10 -3 6 -1 10 4 10 6 0 11
-4 11 -10z m403 -61 c7 -26 -2 -79 -13 -79 -11 0 -20 27 -20 59 0 44 23 57 33
20z m211 -20 c-4 -7 -1 -10 7 -7 13 4 39 -13 39 -27 0 -4 -11 -5 -25 -3 -15 2
-29 -4 -39 -17 -19 -26 -25 -18 -19 22 3 18 12 34 22 36 9 3 17 5 19 6 2 0 0
-4 -4 -10z m-117 -15 c3 -8 -3 -25 -15 -37 -11 -12 -23 -31 -26 -42 -3 -11 -3
3 0 30 3 28 8 53 11 58 7 12 23 8 30 -9z m1083 -30 c0 -12 -42 -64 -51 -64 -5
0 1 16 13 35 21 31 38 45 38 29z m806 -77 c-22 -50 -23 -56 -7 -54 10 0 18 8
17 16 -1 9 10 15 32 17 17 1 32 1 32 -1 0 -10 -109 -187 -154 -250 -27 -38
-43 -65 -35 -59 8 6 54 42 102 79 87 67 88 67 109 49 12 -11 18 -14 15 -7 -4
6 -3 14 3 18 5 3 10 11 10 18 0 6 -6 3 -13 -8 -9 -11 -16 -14 -20 -8 -4 6 15
28 41 49 34 28 40 30 22 10 -14 -15 -24 -37 -22 -48 5 -27 -7 -70 -17 -64 -4
3 -15 0 -24 -7 -21 -15 -6 -43 18 -34 9 4 13 12 9 18 -4 8 -3 9 4 5 7 -4 12
-1 12 8 0 9 3 15 8 15 20 -3 35 5 89 48 83 66 96 73 38 19 -27 -26 -93 -80
-145 -121 -52 -40 -126 -98 -165 -129 -96 -76 -556 -388 -562 -382 -3 2 12 21
32 41 20 21 34 43 31 51 -3 7 0 11 7 8 13 -4 74 66 166 191 25 33 70 94 101
136 31 41 78 111 105 155 109 178 178 284 182 281 2 -3 -7 -30 -21 -60z
m-5791 33 c3 -5 2 -10 -4 -10 -5 0 -13 5 -16 10 -3 6 -2 10 4 10 5 0 13 -4 16
-10z m1425 -52 c0 -21 195 -309 309 -458 115 -150 272 -329 237 -272 -4 7 -2
12 7 12 9 0 14 -11 14 -30 0 -16 -2 -30 -4 -30 -8 0 -420 274 -493 328 -206
152 -339 255 -366 283 -16 18 13 1 67 -40 89 -66 141 -96 88 -51 -15 12 -18
19 -9 18 8 -2 14 2 13 9 -2 7 6 10 18 8 21 -4 21 -4 3 16 -17 19 -17 20 2 13
16 -6 15 -3 -6 21 -14 16 13 0 58 -36 46 -35 102 -77 125 -93 l41 -28 -25 33
c-79 106 -109 149 -134 194 -15 28 -20 42 -12 33 7 -10 18 -14 22 -10 5 4 5 0
0 -8 -4 -8 2 -5 14 8 20 21 22 27 11 52 -7 16 -12 33 -12 37 0 4 -4 19 -9 33
-9 24 -8 23 16 -5 14 -16 25 -33 25 -37z m1840 36 c0 -8 -5 -12 -10 -9 -6 4
-8 11 -5 16 9 14 15 11 15 -7z m-1418 -104 c12 -30 39 -85 60 -122 50 -89 48
-102 -7 -36 -42 50 -57 77 -35 63 16 -10 12 -1 -40 98 -27 52 -47 97 -43 101
9 9 38 -38 65 -104z m2605 95 c0 -8 -4 -15 -9 -15 -10 0 -11 14 -1 23 9 10 10
9 10 -8z m-5074 -41 c56 -29 180 -118 212 -154 l19 -21 -27 10 c-49 19 -91 43
-167 96 -124 87 -143 122 -37 69z m7752 -4 c10 -11 13 -20 7 -20 -6 0 -16 9
-22 20 -6 11 -9 20 -7 20 2 0 12 -9 22 -20z m-2635 -34 c0 -28 -4 -34 -25 -38
-29 -6 -32 0 -9 17 13 9 14 16 5 32 -8 16 -8 22 2 26 20 7 27 -2 27 -37z m-60
14 c0 -5 -2 -10 -4 -10 -3 0 -8 5 -11 10 -3 6 -1 10 4 10 6 0 11 -4 11 -10z
m-1955 -55 c19 -30 35 -60 35 -67 0 -21 -58 44 -75 85 -23 55 0 46 40 -18z
m570 45 c3 -5 -1 -10 -9 -10 -8 0 -18 5 -21 10 -3 6 1 10 9 10 8 0 18 -4 21
-10z m-416 -77 c45 -67 38 -76 -14 -19 -40 45 -48 66 -25 66 4 0 22 -21 39
-47z m711 -14 c0 7 5 9 10 6 6 -3 10 -17 10 -31 0 -13 -4 -24 -10 -24 -5 0
-10 7 -10 15 0 8 -7 15 -15 15 -8 0 -15 7 -15 16 0 14 3 14 15 4 11 -9 15 -9
15 -1z m1378 -21 c-22 -29 -78 -66 -100 -68 -5 0 -8 8 -8 18 0 10 15 24 38 35
20 9 48 24 62 32 35 21 36 19 8 -17z m-208 0 c0 -6 -6 -5 -15 2 -8 7 -15 14
-15 16 0 2 7 1 15 -2 8 -4 15 -11 15 -16z m1795 -29 c-5 -16 -4 -19 5 -14 9 5
11 4 6 -4 -4 -6 -12 -9 -17 -6 -5 4 -10 1 -10 -4 -3 -21 -5 -26 -22 -53 -48
-77 -50 -85 -14 -47 21 22 48 38 68 42 l34 6 -25 -19 c-94 -73 -203 -150 -206
-147 -2 2 8 20 23 39 16 19 57 78 92 131 35 53 66 97 68 97 2 0 1 -10 -2 -21z
m-3125 -15 c0 -8 -4 -12 -10 -9 -5 3 -10 10 -10 16 0 5 5 9 10 9 6 0 10 -7 10
-16z m43 -8 c4 -10 1 -13 -9 -9 -7 3 -14 9 -14 14 0 14 17 10 23 -5z m3207 0
c0 -2 -8 -10 -17 -17 -16 -13 -17 -12 -4 4 13 16 21 21 21 13z m364 -121 c-3
-16 -6 -43 -8 -59 -2 -19 -11 -32 -24 -37 -24 -9 -41 -38 -35 -56 3 -7 -1 -13
-7 -13 -8 0 -11 12 -8 35 l4 35 -27 -26 c-16 -15 -29 -36 -31 -48 -3 -18 -4
-19 -10 -4 -5 12 5 28 31 55 43 43 54 61 77 128 11 34 13 50 5 58 -6 6 -11 18
-11 27 0 8 12 -3 25 -25 18 -29 23 -49 19 -70z m-5806 -20 c34 -49 59 -91 57
-93 -2 -2 -39 25 -82 60 -43 34 -91 73 -108 86 l-30 23 45 -22 c25 -13 53 -30
62 -37 15 -12 14 -7 -3 39 -25 66 -18 59 59 -56z m6289 79 c-9 -9 -28 6 -21
18 4 6 10 6 17 -1 6 -6 8 -13 4 -17z m-4839 -59 c24 -22 31 -35 21 -35 -8 0
-30 16 -49 35 -44 46 -20 46 28 0z m3069 3 c-3 -8 -6 -5 -6 6 -1 11 2 17 5 13
3 -3 4 -12 1 -19z m-897 -8 c0 -5 -7 -10 -15 -10 -8 0 -15 5 -15 10 0 6 7 10
15 10 8 0 15 -4 15 -10z m581 -7 c-15 -28 -153 -183 -163 -183 -21 0 50 98
117 161 43 41 61 50 46 22z m2064 -53 c3 -6 -1 -7 -9 -4 -18 7 -21 14 -7 14 6
0 13 -4 16 -10z m-7661 -29 c3 -4 -6 -6 -19 -3 -14 2 -25 6 -25 8 0 8 39 4 44
-5z m5036 -12 c0 -6 -4 -7 -10 -4 -5 3 -10 11 -10 16 0 6 5 7 10 4 6 -3 10
-11 10 -16z m2790 -41 c0 -13 -30 4 -40 22 -15 27 2 34 22 8 10 -13 18 -26 18
-30z m-2400 -7 c0 -6 -4 -13 -10 -16 -5 -3 -10 1 -10 9 0 9 5 16 10 16 6 0 10
-4 10 -9z m2510 -16 c0 -8 -2 -15 -4 -15 -2 0 -6 7 -10 15 -3 8 -1 15 4 15 6
0 10 -7 10 -15z m-2770 -22 c0 -9 -7 -25 -16 -34 -13 -14 -21 -16 -36 -8 -22
12 -15 29 13 29 10 0 19 7 19 15 0 8 5 15 10 15 6 0 10 -8 10 -17z m2850 7 c0
-13 -28 -25 -38 -16 -3 4 0 11 8 16 20 13 30 12 30 0z m264 -10 c-5 -5 -25
-13 -44 -16 -32 -7 -34 -6 -21 9 7 9 27 17 44 17 20 0 28 -3 21 -10z m56 -25
c-7 -8 -17 -15 -22 -15 -6 0 -5 7 2 15 7 8 17 15 22 15 6 0 5 -7 -2 -15z
m-7430 -50 c0 -8 -4 -15 -10 -15 -5 0 -10 7 -10 15 0 8 5 15 10 15 6 0 10 -7
10 -15z m1710 1 c0 -15 -38 -29 -53 -19 -12 7 20 33 40 33 7 0 13 -6 13 -14z
m-1639 -59 c-17 -17 -33 11 -18 28 10 10 14 10 21 -2 5 -9 4 -19 -3 -26z m460
-22 c7 -14 4 -12 -11 5 -11 14 -25 34 -31 45 -7 14 -4 12 11 -5 11 -14 25 -34
31 -45z m5759 45 c0 -5 -4 -10 -10 -10 -5 0 -10 5 -10 10 0 6 5 10 10 10 6 0
10 -4 10 -10z m-620 -24 c0 -2 -8 -10 -17 -17 -16 -13 -17 -12 -4 4 13 16 21
21 21 13z m-46 -61 c-9 -14 -18 -25 -21 -25 -5 0 5 18 20 38 17 22 18 13 1
-13z m-1094 -25 c0 -5 -2 -10 -4 -10 -3 0 -8 5 -11 10 -3 6 -1 10 4 10 6 0 11
-4 11 -10z m1750 -76 c0 -3 -8 -18 -18 -32 -25 -36 -52 -107 -52 -136 0 -31
-36 -76 -61 -76 -22 0 -27 38 -7 58 7 7 12 43 12 87 1 41 4 75 7 75 3 0 12
-11 19 -25 18 -34 25 -32 56 15 24 35 44 51 44 34z m315 -14 c3 -5 1 -10 -4
-10 -6 0 -11 5 -11 10 0 6 2 10 4 10 3 0 8 -4 11 -10z m-5000 -71 c-4 -5 -13
-9 -22 -9 -13 0 -13 3 -3 15 13 15 35 11 25 -6z m4727 8 c-17 -20 -92 -60 -92
-48 0 5 12 18 28 29 43 30 83 42 64 19z m-532 -18 c0 -5 -4 -9 -10 -9 -5 0
-10 7 -10 16 0 8 5 12 10 9 6 -3 10 -10 10 -16z m-4720 -3 c0 -3 -4 -8 -10
-11 -5 -3 -10 -1 -10 4 0 6 5 11 10 11 6 0 10 -2 10 -4z m4226 -38 c-18 -26
-22 -17 -5 14 6 11 13 17 16 15 3 -3 -2 -16 -11 -29z m-5216 7 c10 -12 10 -15
-4 -15 -9 0 -16 7 -16 15 0 8 2 15 4 15 2 0 9 -7 16 -15z m-500 -5 c0 -5 -5
-10 -11 -10 -5 0 -7 5 -4 10 3 6 8 10 11 10 2 0 4 -4 4 -10z m245 -20 c3 -5 1
-10 -4 -10 -6 0 -11 5 -11 10 0 6 2 10 4 10 3 0 8 -4 11 -10z m5425 1 c0 -5
-7 -11 -15 -15 -15 -5 -20 5 -8 17 9 10 23 9 23 -2z m-3817 -66 c-4 -15 -36
-12 -41 3 -3 9 3 13 19 10 13 -1 23 -7 22 -13z m3937 -1 c0 -2 -7 -4 -15 -4
-8 0 -15 4 -15 10 0 5 7 7 15 4 8 -4 15 -8 15 -10z m1470 1 c-14 -8 -52 -23
-85 -34 -33 -11 -69 -23 -80 -27 -19 -6 -19 -6 -3 11 9 10 52 28 95 41 91 27
108 29 73 9z m-1990 -50 c0 -8 -2 -15 -4 -15 -2 0 -6 7 -10 15 -3 8 -1 15 4
15 6 0 10 -7 10 -15z m760 -1 c-14 -15 -50 -19 -50 -5 0 10 13 16 42 18 16 2
17 -1 8 -13z m-5365 -42 c-8 -8 -25 10 -19 20 4 6 9 5 15 -3 4 -7 6 -15 4 -17z
m6319 -3 c-8 -14 -67 -39 -91 -39 -26 0 -3 19 43 35 48 17 57 18 48 4z m-5106
-53 c2 -9 1 -25 -3 -34 -6 -16 -7 -16 -16 1 -6 9 -14 15 -20 12 -5 -4 -9 -1
-9 4 0 6 5 11 10 11 6 0 10 7 10 16 0 21 24 12 28 -10z m-1628 -6 c24 -18 24
-19 3 -14 -12 4 -28 12 -34 20 -17 20 2 17 31 -6z m5234 -25 c-6 -16 -24 -21
-24 -7 0 11 11 22 21 22 5 0 6 -7 3 -15z m-4016 -26 c-6 -4 -17 -5 -22 -2 -6
4 -5 8 2 11 7 2 9 9 5 15 -4 7 1 6 11 -2 13 -11 14 -16 4 -22z m5042 27 c0 -3
-4 -8 -10 -11 -5 -3 -10 -1 -10 4 0 6 5 11 10 11 6 0 10 -2 10 -4z m-590 -16
c0 -5 -4 -10 -10 -10 -5 0 -10 5 -10 10 0 6 5 10 10 10 6 0 10 -4 10 -10z
m-4048 -52 c-7 -7 -12 -8 -12 -2 0 6 3 14 7 17 3 4 9 5 12 2 2 -3 -1 -11 -7
-17z m-1961 -18 c5 0 9 -4 9 -10 0 -14 -13 -12 -36 6 -17 14 -17 15 -1 10 10
-3 23 -6 28 -6z m1019 -120 c0 -5 -5 -10 -11 -10 -5 0 -7 5 -4 10 3 6 8 10 11
10 2 0 4 -4 4 -10z m530 -40 c0 -5 -4 -10 -10 -10 -5 0 -10 5 -10 10 0 6 5 10
10 10 6 0 10 -4 10 -10z m3870 6 c0 -2 -7 -7 -16 -10 -8 -3 -12 -2 -9 4 6 10
25 14 25 6z m-4470 -26 c0 -5 -2 -10 -4 -10 -3 0 -8 5 -11 10 -3 6 -1 10 4 10
6 0 11 -4 11 -10z m5661 -81 c-13 -11 -27 -17 -30 -13 -7 7 28 34 43 34 6 -1
0 -10 -13 -21z m-5657 -14 c20 0 34 -8 44 -25 l16 -25 -22 19 c-13 12 -29 16
-44 13 -12 -4 -28 -1 -35 5 -17 13 -17 32 0 21 6 -4 25 -8 41 -8z m5156 -15
c0 -5 -7 -7 -15 -4 -8 4 -12 10 -9 15 6 11 24 2 24 -11z m-4999 -43 c-10 -9
-11 -8 -5 6 3 10 9 15 12 12 3 -3 0 -11 -7 -18z m149 -26 c0 -5 -7 -12 -16
-15 -14 -5 -15 -4 -4 9 14 17 20 19 20 6z m5900 -1 c-20 -13 -33 -13 -25 0 3
6 14 10 23 10 15 0 15 -2 2 -10z m-5953 -6 c-3 -3 -12 -4 -19 -1 -8 3 -5 6 6
6 11 1 17 -2 13 -5z m4533 -4 c0 -5 -7 -10 -15 -10 -8 0 -15 5 -15 10 0 6 7
10 15 10 8 0 15 -4 15 -10z m300 -50 c0 -5 -2 -10 -4 -10 -3 0 -8 5 -11 10 -3
6 -1 10 4 10 6 0 11 -4 11 -10z m-4399 -64 c-8 -9 -7 -18 4 -32 27 -35 15 -39
-15 -4 -33 39 -37 52 -15 44 9 -4 18 1 22 12 4 11 8 13 11 6 2 -7 -1 -19 -7
-26z m4463 -20 c-19 -45 -34 -59 -34 -32 0 8 5 18 10 21 6 3 10 14 10 24 0 18
20 44 28 36 2 -2 -4 -24 -14 -49z m-394 30 c0 -3 -4 -8 -10 -11 -5 -3 -10 -1
-10 4 0 6 5 11 10 11 6 0 10 -2 10 -4z m50 -30 c0 -2 -7 -9 -15 -16 -12 -10
-15 -10 -15 4 0 9 7 16 15 16 8 0 15 -2 15 -4z m200 -21 c7 -8 10 -22 6 -30
-5 -13 5 -20 27 -16 4 0 7 -4 7 -10 0 -6 -6 -9 -14 -6 -9 3 -28 -7 -44 -24
-35 -35 -52 -23 -25 17 17 26 17 27 -6 19 -21 -6 -22 -5 -11 17 27 51 39 58
60 33z m-75 -5 c3 -5 1 -10 -4 -10 -6 0 -11 5 -11 10 0 6 2 10 4 10 3 0 8 -4
11 -10z m-4685 -10 c0 -5 -4 -10 -10 -10 -5 0 -10 5 -10 10 0 6 5 10 10 10 6
0 10 -4 10 -10z m595 0 c3 -5 1 -10 -4 -10 -6 0 -11 5 -11 10 0 6 2 10 4 10 3
0 8 -4 11 -10z m3960 -9 c3 -5 1 -12 -5 -16 -5 -3 -10 1 -10 9 0 18 6 21 15 7z
m-4645 -21 c0 -5 -5 -10 -11 -10 -5 0 -7 5 -4 10 3 6 8 10 11 10 2 0 4 -4 4
-10z m5024 -22 c10 -39 6 -44 -13 -18 -19 23 -19 40 -2 40 5 0 11 -10 15 -22z
m-624 8 c0 -3 -4 -8 -10 -11 -5 -3 -10 -1 -10 4 0 6 5 11 10 11 6 0 10 -2 10
-4z m1090 -10 c-15 -14 -139 -56 -166 -56 -64 0 89 66 161 69 17 1 17 -1 5
-13z m-5150 -63 c0 -7 -2 -13 -5 -13 -6 0 -35 56 -35 67 1 13 40 -41 40 -54z
m212 49 c2 -4 20 -18 41 -31 21 -13 36 -25 34 -27 -6 -7 -97 47 -97 57 0 11
17 12 22 1z m102 -29 c11 -15 24 -37 28 -50 5 -20 4 -22 -13 -12 -18 9 -38 44
-45 77 -4 19 6 14 30 -15z m4216 22 c0 -10 -49 -52 -55 -47 -3 3 5 16 17 28
22 21 38 30 38 19z m-760 -64 c0 -5 -7 -12 -16 -15 -14 -5 -15 -4 -4 9 14 17
20 19 20 6z m678 -16 c8 -6 -27 -64 -55 -92 -30 -30 -83 -46 -83 -25 0 14 22
31 35 26 7 -3 16 0 21 7 5 9 2 10 -9 6 -30 -11 -14 36 26 80 18 21 38 20 65
-2z m-4478 5 c0 -5 -4 -10 -9 -10 -6 0 -13 5 -16 10 -3 6 1 10 9 10 9 0 16 -4
16 -10z m3970 -6 c0 -8 -5 -12 -10 -9 -6 4 -8 11 -5 16 9 14 15 11 15 -7z
m-3441 -18 c9 -11 6 -15 -14 -20 -14 -4 -25 -11 -25 -16 0 -6 -5 -10 -11 -10
-8 0 -8 5 1 15 7 8 9 15 5 15 -4 0 -2 7 5 15 15 19 24 19 39 1z m70 0 c10 -12
8 -13 -8 -9 -12 3 -21 9 -21 14 0 14 16 11 29 -5z m-149 -41 c0 -11 -19 -4
-41 15 l-24 21 33 -16 c17 -8 32 -18 32 -20z m3390 25 c0 -5 -5 -10 -11 -10
-5 0 -7 5 -4 10 3 6 8 10 11 10 2 0 4 -4 4 -10z m519 -5 c-8 -8 -29 -16 -47
-18 -18 -2 -38 -9 -44 -15 -15 -15 -38 -16 -38 -2 0 6 9 10 21 10 15 0 19 5
15 16 -4 11 -1 14 13 9 10 -3 29 -1 42 4 13 5 31 10 39 10 12 1 12 -1 -1 -14z
m-549 -17 c0 -13 -23 -5 -28 10 -2 7 2 10 12 6 9 -3 16 -11 16 -16z m122 -12
c10 -18 9 -19 -3 -9 -18 15 -59 14 -79 -3 -26 -20 -80 -45 -80 -36 0 5 20 19
45 31 25 12 45 27 45 33 0 5 7 8 15 4 8 -3 15 -1 15 4 0 16 30 -1 42 -24z
m568 4 c0 -5 -4 -10 -10 -10 -5 0 -10 5 -10 10 0 6 5 10 10 10 6 0 10 -4 10
-10z m-740 -20 c-11 -20 -30 -28 -30 -12 0 11 22 32 32 32 5 0 4 -9 -2 -20z
m-4620 -5 c16 -19 0 -19 -26 0 -16 12 -16 14 -3 15 9 0 22 -7 29 -15z m4475 5
c3 -5 -1 -10 -10 -10 -9 0 -13 5 -10 10 3 6 8 10 10 10 2 0 7 -4 10 -10z m35
-15 c-7 -8 -18 -15 -24 -15 -6 0 -2 7 8 15 25 19 32 19 16 0z m708 -80 c-2 -2
-14 -2 -26 2 -18 4 -20 8 -11 19 9 11 14 11 26 -2 9 -8 14 -17 11 -19z m-597
2 c-10 -9 -11 -8 -5 6 3 10 9 15 12 12 3 -3 0 -11 -7 -18z m-246 -7 c-3 -5
-16 -15 -28 -21 -19 -9 -19 -8 3 10 28 23 34 26 25 11z m-60 -40 c-3 -5 -16
-15 -28 -21 -21 -10 -21 -9 2 10 25 23 36 27 26 11z m295 -72 c0 -11 -12 -10
-30 2 -12 7 -10 9 8 7 12 0 22 -5 22 -9z m28 -19 c-24 -15 34 -10 83 7 49 18
79 14 79 -9 0 -8 -11 -19 -25 -25 -28 -13 -177 -16 -158 -4 7 4 11 18 9 29 -4
16 -1 20 11 16 12 -5 12 -7 1 -14z m-778 -85 c0 -8 -4 -12 -10 -9 -5 3 -10 10
-10 16 0 5 5 9 10 9 6 0 10 -7 10 -16z m1370 -124 c0 -14 -98 -62 -118 -58
-11 3 5 16 43 36 66 34 75 37 75 22z m-3098 -270 c112 -109 199 -199 193 -199
-5 -1 -107 94 -225 210 -118 116 -205 206 -193 200 12 -6 114 -101 225 -211z
m2473 194 c-11 -9 -40 -27 -65 -41 -25 -15 -112 -68 -195 -118 -82 -50 -179
-108 -215 -130 -36 -21 -80 -47 -98 -58 -28 -16 -17 2 65 108 54 71 109 135
123 144 30 20 24 7 -29 -58 -51 -64 -82 -111 -72 -111 4 0 63 32 132 71 368
212 405 232 354 193z m-1135 -9 c-7 -8 -17 -15 -23 -15 -6 0 -2 7 9 15 25 19
30 19 14 0z m-1890 -61 c0 -2 -9 0 -20 6 -11 6 -20 13 -20 16 0 2 9 0 20 -6
11 -6 20 -13 20 -16z m2979 -20 c-14 -18 -24 -11 -15 11 3 9 11 13 16 10 8 -5
7 -11 -1 -21z m-3578 2 c66 -20 119 -49 98 -54 -22 -4 -129 34 -148 53 -19 19
-9 19 50 1z m716 -47 c64 -39 112 -65 200 -104 l53 -24 -40 59 c-22 32 -40 62
-40 66 0 4 -7 16 -17 26 -9 10 -12 18 -6 18 14 0 42 -32 132 -154 78 -105 101
-147 64 -114 -18 16 -104 69 -303 187 -58 34 -116 71 -130 82 l-25 20 25 -12
c14 -7 53 -29 87 -50z m2286 -23 c-53 -60 -240 -235 -208 -196 11 14 31 36 45
50 14 14 46 48 71 76 40 44 128 123 137 124 2 0 -18 -24 -45 -54z m372 -176
c-3 -5 -11 -10 -16 -10 -6 0 -7 5 -4 10 3 6 11 10 16 10 6 0 7 -4 4 -10z
m-2689 -177 c28 -18 33 -46 6 -35 -33 14 -82 46 -82 55 0 12 46 0 76 -20z
m2624 -83 c0 -5 -4 -10 -10 -10 -5 0 -10 5 -10 10 0 6 5 10 10 10 6 0 10 -4
10 -10z m-1486 -110 c3 -14 -3 -7 -13 15 -11 22 -19 47 -19 55 0 17 22 -32 32
-70z m467 3 c-12 -20 -14 -14 -5 12 4 9 9 14 11 11 3 -2 0 -13 -6 -23z m-25
-60 c-8 -15 -15 -25 -16 -21 0 12 23 58 27 54 3 -2 -2 -17 -11 -33z m-422 11
c3 -8 2 -12 -4 -9 -6 3 -10 10 -10 16 0 14 7 11 14 -7z m1201 -53 c-14 -13
-85 -31 -85 -22 0 4 10 13 23 19 27 13 75 16 62 3z m-1165 -36 c0 -5 -5 -3
-10 5 -5 8 -10 20 -10 25 0 6 5 3 10 -5 5 -8 10 -19 10 -25z m-760 -1 c9 -9
10 -14 3 -14 -19 0 -63 22 -63 32 0 12 41 0 60 -18z"/>
<path d="M1230 8356 c0 -2 14 -14 30 -26 17 -12 30 -19 30 -16 0 2 -13 14 -30
26 -16 12 -30 19 -30 16z"/>
<path d="M1372 8244 c14 -16 15 -23 6 -32 -9 -9 -9 -12 0 -12 6 0 9 -7 5 -15
-6 -18 25 -58 38 -49 5 3 9 0 9 -5 0 -6 5 -11 11 -11 5 0 7 6 3 13 -5 8 -2 8
9 -2 20 -16 22 -22 6 -18 -6 1 -13 -6 -14 -16 -2 -11 -1 -16 2 -13 4 3 12 1
20 -6 11 -8 12 -7 7 6 -4 11 -1 16 11 16 12 0 15 -5 10 -21 -7 -20 -5 -21 25
-16 23 5 30 3 27 -6 -2 -6 -10 -11 -17 -9 -7 2 -17 -3 -21 -10 -12 -18 -11
-30 2 -23 5 4 18 -3 28 -14 l19 -21 7 27 7 28 11 -24 c9 -19 9 -25 -1 -29 -7
-2 -10 -8 -6 -13 9 -15 44 10 44 31 0 11 5 20 11 20 6 0 8 -7 5 -16 -3 -9 -2
-12 5 -9 5 4 16 1 24 -5 8 -7 15 -10 15 -7 0 6 -181 165 -265 232 -33 27 -52
39 -43 29z m241 -235 c-4 -15 -8 -17 -14 -8 -6 11 4 28 18 29 0 0 -1 -9 -4
-21z"/>
<path d="M1530 8147 c0 -3 17 -17 37 -33 20 -15 33 -23 29 -16 -8 13 -66 56
-66 49z"/>
<path d="M1619 8076 c13 -16 51 -41 51 -33 0 2 -15 14 -32 27 -21 15 -28 17
-19 6z"/>
<path d="M1520 7956 c0 -2 7 -7 16 -10 8 -3 12 -2 9 4 -6 10 -25 14 -25 6z"/>
<path d="M1714 7952 c8 -13 66 -56 66 -49 0 3 -17 17 -37 33 -20 15 -33 23
-29 16z"/>
<path d="M1850 7846 c0 -2 8 -10 18 -17 15 -13 16 -12 3 4 -13 16 -21 21 -21
13z"/>
<path d="M1890 7811 c0 -5 7 -12 16 -15 14 -5 15 -4 4 9 -14 17 -20 19 -20 6z"/>
<path d="M2066 7665 c4 -8 11 -15 16 -15 6 0 5 6 -2 15 -7 8 -14 15 -16 15 -2
0 -1 -7 2 -15z"/>
<path d="M2170 7586 c0 -2 8 -10 18 -17 15 -13 16 -12 3 4 -13 16 -21 21 -21
13z"/>
<path d="M2497 7235 c-3 -7 1 -16 8 -19 20 -7 26 6 10 21 -10 10 -14 9 -18 -2z"/>
<path d="M9024 8335 c-21 -19 -33 -34 -26 -35 8 0 10 -5 6 -12 -5 -10 -4 -10
5 -2 7 6 13 18 15 27 1 9 13 25 26 36 14 11 22 20 19 21 -3 0 -23 -16 -45 -35z"/>
<path d="M8942 8267 c-21 -22 -28 -34 -18 -34 8 0 13 3 11 7 -7 11 40 51 50
43 4 -5 5 -2 1 5 -9 16 -7 17 -44 -21z"/>
<path d="M8725 8090 c-69 -56 -125 -103 -125 -106 0 -3 6 -2 13 3 19 12 37 12
34 1 -1 -6 6 -12 16 -13 10 -2 17 3 17 11 0 9 -5 12 -12 9 -7 -4 -2 3 12 15
21 18 22 21 5 16 -14 -5 -11 0 10 18 16 13 33 22 38 19 4 -2 6 1 5 9 -2 7 3
12 10 11 6 -2 12 1 12 6 0 5 9 7 20 4 15 -4 20 0 20 13 0 10 14 33 32 51 18
18 29 33 25 33 -3 0 -62 -45 -132 -100z"/>
<path d="M8710 8042 c0 -5 7 -13 16 -16 10 -4 14 -1 12 6 -5 15 -28 23 -28 10z"/>
<path d="M8475 7884 l-40 -36 43 32 c36 27 49 40 40 40 -2 0 -21 -16 -43 -36z"/>
<path d="M8555 7900 c3 -5 11 -10 16 -10 6 0 7 5 4 10 -3 6 -11 10 -16 10 -6
0 -7 -4 -4 -10z"/>
<path d="M8369 7799 l-24 -20 28 17 c15 9 27 18 27 20 0 8 -8 4 -31 -17z"/>
<path d="M8255 7704 l-50 -46 53 42 c46 37 59 50 49 50 -1 0 -25 -21 -52 -46z"/>
<path d="M8044 7528 l-19 -23 23 19 c21 18 27 26 19 26 -2 0 -12 -10 -23 -22z"/>
<path d="M7959 7443 c-13 -16 -12 -17 4 -4 16 13 21 21 13 21 -2 0 -10 -8 -17
-17z"/>
<path d="M7910 7400 c-9 -6 -10 -10 -3 -10 6 0 15 5 18 10 8 12 4 12 -15 0z"/>
<path d="M7874 7362 c3 -5 1 -12 -5 -14 -7 -2 -7 -8 3 -15 11 -10 14 -8 15 7
1 11 -3 23 -9 26 -6 4 -8 2 -4 -4z"/>
<path d="M7840 7312 c0 -10 -4 -23 -10 -30 -7 -9 -7 -9 2 -2 7 6 16 6 25 -1 9
-8 13 -8 13 -1 0 6 -6 13 -12 15 -8 3 -6 6 4 6 11 1 15 6 12 16 -8 21 -34 19
-34 -3z"/>
<path d="M7767 7240 c-10 -16 -15 -30 -12 -30 17 0 72 30 85 46 14 18 14 18
-5 3 -20 -17 -50 -15 -39 2 3 5 1 9 -3 9 -5 0 -17 -13 -26 -30z m23 0 c0 -5
-5 -10 -11 -10 -5 0 -7 5 -4 10 3 6 8 10 11 10 2 0 4 -4 4 -10z"/>
<path d="M7531 8094 c0 -11 3 -14 6 -6 3 7 2 16 -1 19 -3 4 -6 -2 -5 -13z"/>
<path d="M6355 7470 c-3 -6 1 -7 9 -4 18 7 21 14 7 14 -6 0 -13 -4 -16 -10z"/>
<path d="M7365 7079 c-84 -12 -90 -18 -20 -17 34 0 69 7 80 14 11 8 15 13 10
13 -6 -1 -37 -5 -70 -10z"/>
<path d="M6581 6405 c2 -10 209 -213 209 -204 0 2 -47 51 -105 109 -58 58
-104 100 -104 95z"/>
<path d="M7459 6384 c-23 -25 -23 -26 -2 -13 13 7 25 19 27 26 8 19 2 16 -25
-13z"/>
<path d="M7366 6278 c-44 -49 -61 -75 -53 -80 20 -13 47 -9 47 7 0 8 5 15 10
15 6 0 10 6 10 14 0 8 9 21 20 29 11 8 17 16 14 20 -3 3 1 20 9 36 9 17 14 31
12 31 -2 0 -33 -33 -69 -72z"/>
<path d="M7308 6103 c15 -38 31 -71 37 -75 6 -5 6 -8 0 -8 -5 0 1 -7 13 -16
12 -8 22 -21 21 -27 -1 -7 1 -20 6 -30 4 -10 3 -29 -4 -43 -8 -19 -8 -24 1
-18 8 5 9 2 5 -10 -5 -13 -3 -17 7 -13 8 3 17 1 19 -6 6 -17 -4 -47 -15 -47
-5 0 -2 -7 6 -16 9 -8 24 -14 35 -12 24 4 62 -38 54 -59 -5 -11 -7 -12 -14 -2
-4 7 -5 18 -1 24 3 5 -2 4 -12 -4 -12 -10 -14 -16 -5 -21 8 -6 8 -9 -2 -13 -8
-3 -4 -6 9 -6 17 -1 22 -7 22 -26 0 -14 3 -24 8 -24 27 4 34 -3 30 -30 -2 -17
-1 -28 4 -25 4 3 8 11 8 18 0 7 7 13 16 13 10 0 14 -7 11 -18 -3 -12 0 -16 9
-12 9 3 14 -2 14 -16 0 -20 9 -25 36 -22 6 1 24 -5 40 -14 22 -11 30 -12 36
-2 5 8 8 9 8 1 0 -7 7 -14 14 -17 11 -4 13 -1 9 11 -4 12 2 10 22 -8 21 -19
25 -20 14 -5 -24 34 -250 337 -286 385 -20 25 -71 93 -115 153 -44 59 -81 107
-83 107 -2 0 9 -30 23 -67z m142 -303 c0 -5 -6 -10 -14 -10 -8 0 -18 5 -21 10
-3 6 3 10 14 10 12 0 21 -4 21 -10z m95 -110 c3 -5 -1 -10 -9 -10 -8 0 -18 5
-21 10 -3 6 1 10 9 10 8 0 18 -4 21 -10z m155 -114 c0 -3 -4 -8 -10 -11 -5 -3
-10 -1 -10 4 0 6 5 11 10 11 6 0 10 -2 10 -4z"/>
<path d="M6427 5635 c-43 -47 -86 -86 -95 -86 -24 -2 76 -17 118 -18 26 -1 31
2 20 9 -8 5 -10 10 -5 10 6 1 -3 7 -20 15 -30 13 -30 13 -5 15 14 1 29 2 33 1
5 -1 6 3 3 8 -4 5 0 16 9 24 12 13 12 17 1 26 -10 9 -15 8 -20 -4 -3 -9 -10
-13 -16 -10 -6 4 5 25 26 51 20 24 35 44 33 44 -2 -1 -39 -39 -82 -85z"/>
<path d="M7460 5606 c0 -2 7 -7 16 -10 8 -3 12 -2 9 4 -6 10 -25 14 -25 6z"/>
<path d="M6704 5568 l-29 -33 33 29 c30 28 37 36 29 36 -2 0 -16 -15 -33 -32z"/>
<path d="M6498 5523 c7 -3 16 -2 19 1 4 3 -2 6 -13 5 -11 0 -14 -3 -6 -6z"/>
<path d="M6650 5515 c-7 -9 -8 -15 -2 -15 5 0 12 7 16 15 3 8 4 15 2 15 -2 0
-9 -7 -16 -15z"/>
<path d="M2346 6048 c-10 -79 -24 -186 -32 -238 -25 -168 -24 -160 -7 -160 11
0 14 7 11 24 -3 17 4 32 29 55 18 18 31 36 28 41 -3 4 2 15 10 23 8 9 15 21
15 28 0 7 8 2 19 -9 10 -12 25 -22 32 -22 9 1 4 9 -11 22 -16 14 -21 22 -12
25 6 3 12 11 12 19 0 11 -4 12 -19 4 -11 -5 -24 -10 -30 -10 -18 0 -12 48 7
60 16 11 16 11 -1 6 -15 -5 -16 -2 -7 13 7 14 6 21 -3 24 -9 4 -9 6 1 6 7 1
10 6 7 11 -3 6 -3 10 2 10 8 0 8 144 0 185 -2 11 -11 21 -19 23 -11 2 -18 -26
-32 -140z"/>
<path d="M2399 5763 c-13 -16 -12 -17 4 -4 9 7 17 15 17 17 0 8 -8 3 -21 -13z"/>
<path d="M2298 5633 c7 -3 16 -2 19 1 4 3 -2 6 -13 5 -11 0 -14 -3 -6 -6z"/>
<path d="M2455 5290 c-8 -13 5 -13 25 0 13 8 13 10 -2 10 -9 0 -20 -4 -23 -10z"/>
<path d="M3087 5913 c-22 -177 -34 -274 -51 -436 -2 -25 0 -28 21 -22 12 3 43
8 67 11 32 5 43 10 39 20 -6 15 -33 19 -33 5 0 -5 -8 -8 -17 -6 -10 2 -21 4
-25 4 -17 2 -7 30 12 36 11 3 20 11 20 17 0 5 -7 8 -15 4 -8 -3 -15 -1 -15 4
0 6 7 10 15 10 18 0 21 46 3 53 -19 7 4 42 28 43 37 3 39 5 24 17 -8 7 -16 23
-16 37 -1 14 -5 36 -9 50 -4 14 -6 36 -4 50 1 14 2 41 2 60 -1 19 -1 83 -2
143 0 59 -4 107 -9 107 -5 0 -20 -93 -35 -207z m43 -233 c0 -5 -2 -10 -4 -10
-3 0 -8 5 -11 10 -3 6 -1 10 4 10 6 0 11 -4 11 -10z"/>
<path d="M3378 6074 c-5 -4 -8 -21 -8 -38 0 -21 3 -27 11 -19 6 6 9 23 7 38
-2 15 -6 23 -10 19z"/>
<path d="M4303 6005 c0 -27 2 -38 4 -22 2 15 2 37 0 50 -2 12 -4 0 -4 -28z"/>
<path d="M3354 5841 c-4 -34 -11 -64 -16 -67 -7 -4 -6 -9 0 -13 10 -6 9 -24
-13 -206 -4 -33 -5 -57 -2 -54 13 11 54 386 43 396 -3 3 -8 -22 -12 -56z"/>
<path d="M3815 5730 c3 -5 8 -10 11 -10 2 0 4 5 4 10 0 6 -5 10 -11 10 -5 0
-7 -4 -4 -10z"/>
<path d="M3095 5500 c3 -5 8 -10 11 -10 2 0 4 5 4 10 0 6 -5 10 -11 10 -5 0
-7 -4 -4 -10z"/>
<path d="M5437 6328 c-20 -51 -60 -146 -89 -211 -42 -95 -56 -117 -70 -113
-10 2 -21 0 -24 -5 -3 -5 80 -9 200 -9 113 0 206 2 206 5 0 5 -114 285 -157
388 -9 20 -19 37 -23 37 -4 0 -23 -42 -43 -92z"/>
<path d="M6016 5990 c4 -14 14 -41 24 -60 10 -19 21 -51 25 -70 4 -19 15 -48
24 -65 8 -16 16 -34 16 -40 1 -5 9 -23 20 -39 10 -16 27 -52 37 -80 9 -28 17
-43 18 -34 0 10 -34 99 -75 198 -74 180 -103 241 -89 190z"/>
<path d="M5725 5780 c28 -12 45 -12 45 0 0 6 -15 10 -32 9 -28 0 -30 -2 -13
-9z"/>
<path d="M5787 5759 c7 -7 15 -10 18 -7 3 3 -2 9 -12 12 -14 6 -15 5 -6 -5z"/>
<path d="M6130 5556 c0 -7 40 -14 44 -7 3 4 -6 8 -20 9 -13 1 -24 0 -24 -2z"/>
<path d="M1977 5727 c-11 -29 -9 -53 4 -40 6 6 9 21 7 34 -3 21 -4 22 -11 6z"/>
<path d="M5330 4532 c0 -9 -7 -13 -18 -10 -22 6 -45 -15 -30 -30 7 -7 6 -16
-1 -30 -14 -27 -15 -74 -1 -52 7 12 10 8 11 -15 0 -23 5 -15 19 33 11 35 26
75 34 88 20 29 20 31 1 31 -8 0 -15 -7 -15 -15z"/>
<path d="M5721 4345 c-1 -17 -63 -49 -91 -47 l-25 1 23 -16 c28 -20 28 -27 -4
-42 -22 -10 -30 -9 -44 4 -22 20 -56 19 -64 -1 -9 -23 -8 -24 13 -24 10 0 21
-6 24 -13 8 -20 -20 -90 -43 -109 -11 -9 -20 -26 -20 -38 0 -12 -5 -31 -11
-43 -8 -14 -9 -22 -1 -25 5 -1 20 -12 33 -23 20 -17 24 -18 31 -4 14 24 30 18
17 -7 -10 -18 -9 -20 5 -15 8 3 18 2 21 -3 4 -6 -1 -10 -9 -10 -22 0 -20 -30
2 -30 16 -1 16 -2 -1 -14 -12 -9 -14 -16 -8 -21 22 -13 11 -36 -20 -42 -30 -6
-31 -7 -14 -20 11 -7 14 -13 8 -13 -7 0 -15 5 -18 10 -9 15 -43 12 -70 -6 -27
-18 -32 -43 -13 -62 9 -9 8 -16 -5 -30 -9 -10 -20 -33 -23 -50 -6 -27 -9 -30
-26 -21 -16 9 -19 7 -16 -8 2 -11 -2 -17 -10 -15 -8 1 -11 -2 -8 -6 3 -5 -6
-18 -19 -28 -14 -10 -25 -24 -25 -30 0 -15 -29 -72 -40 -79 -5 -3 -6 -13 -3
-22 4 -11 2 -14 -8 -11 -8 3 -13 17 -12 34 2 22 0 25 -7 14 -9 -13 -12 -13
-21 3 -10 17 -12 17 -35 2 -13 -8 -24 -13 -24 -10 0 2 -9 -3 -20 -12 -11 -10
-20 -23 -20 -30 0 -7 -4 -13 -10 -13 -5 0 -10 7 -10 15 0 10 -7 15 -17 13 -10
-2 -17 2 -16 8 1 7 -6 14 -15 16 -14 4 -17 -1 -16 -21 0 -17 7 -27 20 -29 10
-2 24 -9 29 -14 7 -7 3 -9 -11 -6 -17 4 -25 -2 -38 -29 -9 -18 -16 -40 -16
-48 0 -20 67 -58 93 -51 20 5 57 -17 57 -35 0 -8 -62 -2 -90 8 -8 4 -19 7 -25
7 -21 2 -64 38 -74 64 -7 15 -23 35 -37 45 -31 23 -52 12 -28 -14 17 -18 16
-19 -28 -19 -38 0 -48 -4 -66 -30 -13 -16 -27 -30 -33 -30 -5 0 7 20 28 45 20
25 45 45 55 45 10 0 18 5 18 10 0 19 -41 10 -65 -15 -14 -13 -25 -28 -25 -32
0 -4 -12 -13 -26 -20 -22 -10 -24 -10 -14 3 18 20 3 17 -31 -7 -17 -12 -42
-24 -56 -28 -15 -4 -29 -14 -33 -22 -4 -7 -14 -29 -23 -47 -10 -19 -14 -38
-11 -44 8 -12 -25 -48 -43 -48 -12 0 -12 4 0 28 7 15 21 42 30 60 9 19 17 39
17 46 0 20 34 46 61 46 28 0 185 109 243 169 39 40 41 61 5 61 -10 0 -19 5
-19 10 0 6 5 10 10 10 15 0 12 26 -5 40 -10 8 -15 9 -15 2 0 -6 -7 -9 -15 -6
-8 4 -15 13 -15 21 0 8 5 11 13 7 6 -4 1 3 -11 16 -19 18 -21 24 -10 32 9 7 7
8 -9 5 -18 -4 -23 -1 -23 14 0 12 -10 23 -25 29 -14 5 -25 14 -25 19 0 6 -12
22 -27 36 -24 21 -26 27 -13 35 11 7 12 10 2 10 -10 0 -12 11 -8 45 6 39 4 45
-11 45 -15 0 -15 2 -3 9 8 6 18 7 22 5 4 -3 8 0 8 5 0 6 3 10 8 10 4 -1 13 -1
20 0 19 2 -12 31 -32 31 -9 0 -16 5 -16 10 0 6 -5 10 -10 10 -6 0 -5 -8 2 -20
10 -15 10 -22 0 -30 -6 -6 -10 -7 -7 -4 3 4 0 13 -6 21 -15 18 -64 17 -79 -2
-7 -8 -23 -15 -36 -15 -16 0 -24 -6 -24 -17 0 -16 -2 -16 -10 -3 -9 13 -13 12
-28 -6 -14 -16 -21 -19 -35 -10 -12 8 -22 7 -37 -2 -12 -7 -26 -9 -33 -5 -7 4
-23 8 -37 9 -14 0 -43 2 -65 3 l-40 3 45 12 c26 7 64 9 90 5 48 -7 91 4 150
39 74 45 90 52 90 42 0 -5 7 -10 15 -10 10 0 15 10 15 29 l0 30 -35 -15 c-44
-18 -57 -18 -53 2 2 10 -3 19 -9 21 -8 3 -13 -5 -13 -21 0 -30 -7 -32 -32 -9
-17 15 -20 15 -28 3 -8 -12 -10 -10 -10 8 0 13 -4 21 -9 17 -5 -3 -12 -1 -16
5 -3 5 1 10 9 10 9 0 16 5 16 10 0 6 21 20 48 32 26 13 49 23 50 25 2 1 1 10
-2 21 -4 12 -14 19 -24 17 -88 -18 -122 -29 -121 -39 4 -20 -13 -46 -25 -39
-32 21 -136 -3 -121 -27 4 -6 -2 -10 -12 -10 -10 0 -35 -11 -54 -24 -24 -17
-40 -21 -46 -15 -7 7 -26 -3 -57 -30 -26 -23 -60 -48 -74 -55 -15 -8 -36 -24
-47 -36 l-20 -23 53 7 c28 3 74 9 102 12 27 4 55 13 61 20 15 18 45 18 52 1 8
-21 -60 -46 -125 -46 -31 0 -66 -4 -77 -10 -11 -6 -37 -11 -59 -11 -43 0 -100
-36 -74 -47 18 -7 -25 -53 -50 -53 -30 0 -64 -27 -122 -100 -30 -37 -68 -82
-85 -100 -16 -18 -37 -47 -46 -64 -16 -29 -16 -34 -1 -70 10 -24 21 -36 29
-33 10 4 17 -13 26 -61 18 -98 30 -124 52 -117 11 4 19 2 19 -4 0 -16 -38 -23
-60 -11 -11 6 -19 14 -16 18 10 17 -17 126 -39 162 -14 22 -25 46 -25 53 0 54
-51 -35 -86 -149 -9 -32 -18 -61 -19 -64 -1 -3 -7 -18 -14 -35 -7 -16 -10 -38
-7 -48 2 -10 -2 -30 -9 -45 -9 -17 -11 -28 -4 -32 10 -7 7 -68 -4 -86 -14 -23
37 -99 115 -175 81 -77 95 -89 83 -69 -23 38 62 -29 175 -137 41 -40 103 -90
136 -113 63 -42 135 -110 118 -110 -6 0 -37 17 -70 38 -80 52 -84 54 -84 49 0
-6 143 -111 255 -189 339 -234 865 -582 823 -544 -18 16 -23 26 -15 29 9 4 9
6 -1 6 -7 1 -10 6 -6 13 4 6 3 8 -4 4 -6 -3 -22 5 -35 18 -21 21 -23 26 -9 29
10 3 4 5 -13 6 l-30 1 25 13 c14 8 24 20 22 30 -2 12 2 15 15 10 15 -6 16 -5
3 9 -8 9 -18 14 -22 12 -3 -2 -4 5 -1 17 4 14 9 17 16 10 6 -6 16 -11 22 -11
11 0 -45 49 -58 50 -4 0 -31 17 -60 37 -28 20 -126 86 -217 147 -91 60 -211
143 -267 183 -56 40 -104 73 -108 73 -3 0 -42 26 -86 58 -44 31 -101 72 -127
90 -66 47 -121 95 -95 83 33 -16 38 -13 18 9 -10 11 -20 35 -22 52 -2 18 -10
42 -18 55 -9 13 -11 23 -6 23 23 0 88 -146 68 -153 -7 -2 9 -18 33 -35 25 -17
70 -49 100 -71 30 -21 76 -50 101 -63 25 -14 55 -34 67 -46 12 -12 29 -22 37
-22 8 0 15 -3 15 -7 0 -5 21 -21 48 -38 26 -16 154 -99 284 -185 131 -85 282
-182 336 -216 93 -58 99 -60 122 -46 14 8 135 88 270 178 135 89 283 187 330
217 219 142 389 263 426 303 22 24 47 44 55 44 20 0 59 73 53 98 -4 14 1 24
17 33 23 12 23 12 4 20 -19 8 -19 8 3 15 16 5 24 17 28 45 4 22 11 39 17 39 6
0 7 -3 4 -7 -4 -3 -2 -12 4 -19 6 -8 9 -21 5 -29 -5 -13 -2 -14 16 -4 12 6 27
16 32 21 6 4 22 17 35 28 13 11 34 20 46 20 27 0 74 35 85 64 8 19 9 19 9 -6
1 -15 6 -30 11 -33 15 -9 12 -25 -4 -25 -8 0 -33 -11 -55 -23 -37 -21 -40 -26
-26 -37 13 -11 18 -10 28 4 16 22 43 12 52 -21 5 -20 8 -23 21 -13 11 10 11
16 3 26 -6 8 -8 21 -5 30 5 14 9 14 23 3 13 -11 17 -11 20 -1 3 6 13 12 24 12
10 0 19 5 19 10 0 6 -4 10 -10 10 -5 0 -10 5 -10 10 0 6 6 10 13 10 16 0 60
78 51 92 -4 7 -3 8 4 4 7 -4 13 7 18 31 3 21 14 47 24 58 27 31 31 53 12 60
-15 6 -15 8 4 23 25 21 22 70 -6 119 -11 18 -14 33 -9 35 6 2 -1 23 -14 46
-13 24 -27 42 -30 40 -3 -2 -14 5 -26 16 -12 11 -30 17 -44 14 -19 -4 -26 1
-35 24 -12 32 -11 33 28 13 22 -11 29 -12 33 -2 7 18 -15 52 -33 52 -11 0 -14
9 -12 30 2 22 -9 48 -37 92 -42 65 -62 84 -69 65 -5 -17 -22 -4 -22 16 0 9
-18 37 -40 62 -30 33 -39 39 -35 23 4 -15 2 -23 -5 -23 -8 0 -9 -6 -4 -17 4
-10 10 -48 13 -84 6 -61 5 -65 -13 -61 -16 4 -17 1 -12 -24 6 -25 2 -32 -24
-47 -37 -22 -53 -51 -45 -80 6 -21 6 -21 -9 -3 -14 17 -16 17 -16 4 0 -9 -5
-20 -11 -23 -19 -13 -21 3 -3 37 10 18 17 39 16 45 -2 7 15 20 36 29 30 11 39
20 35 34 -3 10 0 21 6 24 6 4 11 17 11 29 0 29 -20 8 -34 -35 -6 -17 -18 -34
-26 -36 -12 -4 -11 -1 3 15 9 11 17 34 17 51 0 17 5 34 10 37 6 3 10 17 10 31
0 13 5 24 11 24 8 0 8 4 -1 15 -8 9 -9 28 -5 55 5 33 3 44 -10 53 -9 7 -17 21
-19 31 -1 11 -10 20 -19 22 -9 1 -29 12 -43 23 -17 14 -35 19 -48 16 -17 -5
-18 -4 -6 4 13 10 11 14 -10 31 -14 10 -34 20 -45 22 -11 2 -24 13 -30 26 -11
24 -38 37 -72 33 -12 -1 -41 13 -68 33 -26 20 -57 36 -71 36 -13 0 -24 6 -24
13 0 7 -13 23 -30 35 -16 13 -30 31 -30 41 0 10 -10 23 -22 30 -13 6 -15 9 -5
7 9 -3 17 -2 17 3 0 18 -28 31 -58 27 -21 -2 -37 3 -48 15 -10 11 -23 19 -30
19 -7 0 -15 6 -17 13 -3 6 -6 7 -6 2z m-32 -109 c9 -10 8 -15 -3 -19 -11 -4
-13 -1 -9 10 4 11 2 14 -5 9 -7 -4 -12 -2 -12 3 0 15 15 14 29 -3z m225 -62
c25 -9 19 -19 -11 -20 -16 0 -37 -4 -48 -9 -20 -8 -20 -8 -1 13 20 23 33 26
60 16z m-154 -24 c0 -5 -4 -10 -10 -10 -5 0 -10 5 -10 10 0 6 5 10 10 10 6 0
10 -4 10 -10z m18 -44 c-13 -14 -28 -12 -28 5 0 5 9 9 20 9 17 0 19 -2 8 -14z
m-188 -56 c0 -5 -4 -10 -9 -10 -6 0 -13 5 -16 10 -3 6 1 10 9 10 9 0 16 -4 16
-10z m64 -118 c-12 -3 -13 -7 -3 -18 13 -16 33 -19 24 -4 -3 6 -2 10 2 10 12
0 36 -41 28 -48 -3 -4 -10 0 -15 8 -8 13 -12 12 -24 -5 -9 -11 -16 -24 -16
-29 0 -6 6 -2 13 9 13 17 15 17 36 -4 16 -16 21 -30 17 -47 -4 -16 -2 -24 7
-24 7 0 23 -9 35 -20 19 -18 45 -30 29 -14 -8 9 11 44 24 44 6 0 6 -7 -1 -19
-15 -28 -12 -40 8 -40 37 -1 82 -14 93 -27 9 -11 8 -14 -5 -14 -10 0 -26 5
-37 10 -11 6 -19 7 -19 1 0 -5 7 -12 16 -15 9 -4 14 -9 10 -13 -3 -3 -25 7
-49 23 -23 17 -53 31 -66 32 -13 0 -34 10 -46 22 -12 11 -29 18 -37 15 -10 -4
-24 4 -37 21 -25 31 -29 84 -6 84 20 0 19 24 -2 41 -16 14 -43 69 -43 89 0 5
18 -7 39 -28 27 -26 35 -38 25 -40z m116 44 c0 -3 -4 -8 -10 -11 -5 -3 -10 -1
-10 4 0 6 5 11 10 11 6 0 10 -2 10 -4z m-1260 -26 c0 -5 -7 -10 -16 -10 -8 0
-12 5 -9 10 3 6 10 10 16 10 5 0 9 -4 9 -10z m1333 -22 c17 -9 24 -38 8 -38
-5 0 -14 7 -21 15 -7 8 -18 15 -25 15 -7 0 -18 7 -26 16 -11 13 -9 14 17 8 16
-4 37 -11 47 -16z m57 -3 c0 -8 -4 -15 -9 -15 -13 0 -22 16 -14 24 11 11 23 6
23 -9z m-1235 -5 c-3 -5 -12 -10 -18 -10 -7 0 -6 4 3 10 19 12 23 12 15 0z
m1275 -74 c0 -3 -4 -8 -10 -11 -5 -3 -10 -1 -10 4 0 6 5 11 10 11 6 0 10 -2
10 -4z m-1364 -31 c-14 -14 -16 -14 -16 -2 0 9 6 17 13 20 19 7 21 -1 3 -18z
m99 9 c15 -15 15 -18 0 -41 -12 -17 -13 -28 -6 -37 6 -6 8 -21 5 -32 -5 -19
20 -52 35 -47 3 1 5 -4 4 -10 -2 -7 9 -14 24 -15 15 -1 31 -6 36 -11 16 -16
16 -119 1 -132 -12 -10 -13 -8 -7 7 6 17 5 17 -10 5 -10 -7 -23 -25 -30 -39
-14 -30 -41 -44 -30 -16 4 12 3 15 -5 10 -7 -4 -18 -4 -24 1 -7 4 -20 8 -28
10 -8 1 -16 6 -17 10 -12 31 -21 36 -44 19 -29 -20 -46 -21 -30 -2 6 8 10 20
9 27 -2 9 6 14 20 13 25 -1 30 11 8 19 -15 6 -50 -26 -40 -36 4 -3 -1 -13 -10
-22 -15 -15 -16 -15 -17 2 -1 10 -1 22 0 27 4 19 -11 45 -29 51 -10 3 -30 22
-45 41 -22 29 -25 37 -14 50 9 11 9 18 2 22 -6 4 -13 18 -17 32 -5 17 -4 21 2
12 10 -14 30 -16 95 -9 35 4 65 17 39 17 -7 0 -5 8 5 20 12 13 21 16 29 10 12
-11 41 -9 62 3 17 11 15 28 -3 21 -15 -6 -21 16 -8 29 10 11 20 8 38 -9z
m1220 -4 c3 -5 2 -10 -4 -10 -5 0 -13 5 -16 10 -3 6 -2 10 4 10 5 0 13 -4 16
-10z m-120 -20 c3 -5 -1 -10 -9 -10 -9 0 -16 5 -16 10 0 6 4 10 9 10 6 0 13
-4 16 -10z m-1228 -14 c0 -8 -6 -12 -14 -9 -7 3 -10 9 -7 14 8 14 21 11 21 -5z
m-45 -28 c-6 -6 -15 -8 -19 -4 -4 4 -1 11 7 16 19 12 27 3 12 -12z m-202 -10
c0 -6 -6 -5 -15 2 -8 7 -15 14 -15 16 0 2 7 1 15 -2 8 -4 15 -11 15 -16z
m1720 13 c0 -18 -18 -21 -30 -6 -10 13 -9 15 9 15 11 0 21 -4 21 -9z m-1700
-41 c0 -5 -4 -10 -10 -10 -5 0 -10 5 -10 10 0 6 5 10 10 10 6 0 10 -4 10 -10z
m2258 -120 c0 -16 -4 -30 -9 -30 -5 0 -9 11 -9 24 0 13 -3 33 -7 43 -6 15 -4
16 9 6 8 -7 15 -26 16 -43z m-1086 8 c-7 -7 -12 -8 -12 -2 0 14 12 26 19 19 2
-3 -1 -11 -7 -17z m-1182 -8 c0 -5 -5 -10 -11 -10 -5 0 -7 5 -4 10 3 6 8 10
11 10 2 0 4 -4 4 -10z m1611 -21 c30 -17 45 -28 34 -24 -47 17 -58 18 -51 7 5
-8 -1 -12 -16 -12 l-23 -1 25 -14 c14 -7 27 -9 28 -4 2 5 8 9 13 9 6 0 7 -4 4
-10 -3 -5 3 -10 13 -10 12 0 19 -6 18 -16 -1 -19 86 -53 92 -35 4 13 52 15 52
3 0 -5 -10 -13 -21 -18 -20 -9 -20 -11 15 -37 41 -32 45 -45 14 -44 -13 0 -29
-2 -37 -4 -9 -2 -17 8 -23 28 -6 24 -19 38 -46 52 -20 10 -42 16 -48 14 -7 -2
-15 8 -18 24 -6 21 -9 24 -16 13 -7 -12 -15 -9 -39 14 -22 21 -28 33 -21 42 8
8 6 13 -6 18 -24 9 -27 8 -21 -14 7 -27 -11 -25 -23 3 -5 12 -9 16 -9 10 -1
-7 -19 -22 -41 -33 -22 -11 -40 -25 -40 -31 0 -6 5 -7 10 -4 6 3 10 2 10 -2 0
-9 -105 -43 -133 -43 -9 0 -17 4 -17 9 0 20 13 41 25 41 6 0 31 13 53 30 23
16 48 27 56 24 9 -3 30 6 48 20 43 34 73 33 139 -5z m-531 1 c-13 -11 -26 -18
-28 -15 -6 6 28 34 42 35 5 0 -1 -9 -14 -20z m868 -4 c12 -1 22 -6 22 -13 0
-16 -17 -26 -22 -12 -2 6 -15 12 -28 13 -13 0 -25 7 -28 15 -4 11 0 12 14 6
11 -5 29 -9 42 -9z m-1780 -13 c2 -7 -4 -13 -13 -13 -9 0 -23 -16 -32 -37 -13
-33 -16 -36 -28 -20 -7 9 -24 18 -39 19 -14 1 -26 8 -26 16 0 7 8 12 18 11 30
-3 37 1 22 11 -11 8 -9 9 11 5 17 -4 30 -1 39 10 15 18 41 17 48 -2z m872 -13
c0 -5 -4 -10 -10 -10 -5 0 -10 5 -10 10 0 6 5 10 10 10 6 0 10 -4 10 -10z
m1260 -30 c6 -11 8 -20 6 -20 -3 0 -10 9 -16 20 -6 11 -8 20 -6 20 3 0 10 -9
16 -20z m-66 -13 c8 -7 16 -24 20 -37 6 -24 6 -24 -9 2 -10 17 -21 25 -30 22
-9 -4 -15 0 -15 10 0 19 17 21 34 3z m-2644 -1 c0 -3 -4 -8 -10 -11 -5 -3 -10
-1 -10 4 0 6 5 11 10 11 6 0 10 -2 10 -4z m563 -21 c-3 -9 -8 -14 -10 -11 -3
3 -2 9 2 15 9 16 15 13 8 -4z m158 -15 c5 0 9 -5 9 -12 0 -6 -8 -3 -20 7 -11
10 -16 23 -12 29 4 7 8 5 10 -6 2 -10 8 -18 13 -18z m1600 7 c31 -4 46 -13 58
-35 8 -14 5 -18 -12 -19 -15 -2 -17 1 -9 6 10 6 10 10 -3 21 -12 10 -15 10
-15 0 0 -14 -54 -7 -96 12 -32 15 -19 31 20 24 17 -4 43 -8 57 -9z m309 -15
c0 -21 -18 -42 -37 -42 -7 0 -13 5 -13 11 0 6 7 9 15 5 11 -4 15 1 15 19 0 14
5 25 10 25 6 0 10 -8 10 -18z m-1095 -17 c-38 -31 -67 -34 -40 -5 10 12 25 18
32 16 7 -3 15 -1 18 4 4 6 9 10 13 10 4 -1 -6 -12 -23 -25z m-1007 3 c19 -19
14 -26 -13 -20 -25 4 -31 13 -18 25 9 10 17 9 31 -5z m1067 2 c-3 -5 -11 -10
-16 -10 -6 0 -7 5 -4 10 3 6 11 10 16 10 6 0 7 -4 4 -10z m150 -21 c-10 -15
-25 -10 -19 6 4 8 10 12 15 9 5 -3 7 -10 4 -15z m-492 -57 c13 -16 5 -24 -16
-16 -10 3 -14 15 -12 32 5 38 7 40 12 17 3 -11 10 -26 16 -33z m1209 39 c-11
-7 -11 -12 -1 -28 7 -11 9 -28 6 -37 -11 -28 -26 -8 -25 34 0 30 4 40 17 40
13 0 13 -2 3 -9z m-1075 -23 c7 -6 10 -14 7 -19 -3 -5 1 -6 9 -3 8 3 18 1 21
-5 8 -12 -30 -25 -46 -15 -8 5 -9 2 -5 -10 5 -14 3 -17 -8 -12 -8 3 -15 1 -15
-4 0 -6 -7 -10 -15 -10 -8 0 -15 5 -15 10 0 6 -6 10 -14 10 -16 0 -41 28 -33
37 4 3 18 -2 33 -12 15 -9 23 -12 20 -6 -4 6 0 11 10 11 16 0 16 1 1 18 -10
10 -14 22 -10 25 8 8 42 -1 60 -15z m-790 -1 c-2 -7 -16 -11 -31 -9 -16 2 -29
-3 -32 -13 -3 -8 -13 -15 -22 -15 -11 0 -9 6 9 23 26 24 83 35 76 14z m1143
-1 c0 -7 -8 -20 -17 -27 -15 -12 -16 -12 -10 4 4 10 7 23 7 28 0 5 5 9 10 9 6
0 10 -6 10 -14z m-1060 -8 c0 -5 -9 -8 -19 -8 -11 0 -22 3 -24 8 -3 4 6 7 19
7 13 0 24 -3 24 -7z m1245 2 c-4 -6 4 -19 17 -30 17 -14 20 -21 11 -30 -8 -9
-14 -7 -24 11 -6 13 -18 28 -26 32 -16 10 -8 27 13 27 8 0 12 -5 9 -10z m481
-37 c-3 -4 -6 -1 -6 5 0 7 -7 12 -15 12 -16 0 -20 12 -8 23 3 4 13 -2 21 -14
8 -11 11 -23 8 -26z m-906 33 c0 -3 -4 -8 -10 -11 -5 -3 -10 -1 -10 4 0 6 5
11 10 11 6 0 10 -2 10 -4z m833 -11 c8 -19 -13 -31 -23 -14 -9 14 -4 29 10 29
4 0 10 -7 13 -15z m-2383 -15 c0 -5 -5 -10 -11 -10 -5 0 -7 5 -4 10 3 6 8 10
11 10 2 0 4 -4 4 -10z m1087 -62 c-3 -7 -5 -2 -5 12 0 14 2 19 5 13 2 -7 2
-19 0 -25z m810 -19 c-8 -13 -13 -15 -19 -6 -14 22 -9 35 11 30 17 -4 18 -8 8
-24z m-29 -14 c-3 -3 -9 2 -12 12 -6 14 -5 15 5 6 7 -7 10 -15 7 -18z m-727
-15 c19 -15 20 -19 8 -20 -23 0 -70 25 -62 33 11 12 30 7 54 -13z m81 -11 l21
-11 -23 -13 c-23 -12 -23 -13 -3 -19 23 -7 62 -46 46 -46 -12 0 -63 38 -80 60
-8 10 -8 19 -1 27 13 16 14 16 40 2z m1688 -7 c0 -13 -12 -22 -22 -16 -10 6
-1 24 13 24 5 0 9 -4 9 -8z m-1308 -24 c-7 -7 -12 -8 -12 -2 0 14 12 26 19 19
2 -3 -1 -11 -7 -17z m-1594 -23 c-3 -3 -9 2 -12 12 -6 14 -5 15 5 6 7 -7 10
-15 7 -18z m2872 -7 c0 -7 -4 -18 -8 -23 -8 -13 -52 -17 -52 -6 0 9 40 40 53
40 4 1 7 -5 7 -11z m-3215 -8 c3 -5 1 -10 -4 -10 -6 0 -11 5 -11 10 0 6 2 10
4 10 3 0 8 -4 11 -10z m1996 -16 c-35 -16 -67 -12 -56 6 3 5 25 10 48 9 l42
-1 -34 -14z m-1572 -34 l44 -40 -42 0 c-22 0 -41 5 -41 10 0 6 3 9 8 9 19 -3
23 2 12 16 -9 11 -16 12 -30 2 -11 -6 -23 -7 -27 -3 -4 5 -2 11 5 13 6 3 12
11 12 19 0 22 11 17 59 -26z m1469 20 c11 -11 28 -17 36 -14 9 3 16 2 16 -4 0
-5 -24 -12 -52 -15 -39 -4 -58 -1 -70 11 -25 21 -22 30 10 35 15 2 30 5 33 6
3 0 15 -8 27 -19z m259 -26 c10 -26 -1 -22 -37 14 l-35 35 33 -17 c18 -9 36
-24 39 -32z m-357 26 c0 -5 -9 -15 -19 -22 -10 -6 -17 -18 -14 -25 3 -8 -3
-13 -16 -13 -14 0 -21 -6 -21 -19 0 -11 -17 -32 -37 -48 -56 -44 -73 -50 -35
-13 36 35 52 67 52 105 0 15 5 23 13 20 6 -3 23 1 37 9 31 17 40 19 40 6z
m1480 -5 c0 -9 -9 -15 -21 -15 -18 0 -19 2 -9 15 7 8 16 15 21 15 5 0 9 -7 9
-15z m-1200 -5 c0 -5 -2 -10 -4 -10 -3 0 -8 5 -11 10 -3 6 -1 10 4 10 6 0 11
-4 11 -10z m-95 -10 c-3 -5 -11 -10 -16 -10 -6 0 -7 5 -4 10 3 6 11 10 16 10
6 0 7 -4 4 -10z m1165 -30 c-6 -11 -15 -20 -21 -20 -6 0 -6 7 1 20 6 11 15 20
21 20 6 0 6 -7 -1 -20z m-2986 -5 c-4 -8 -10 -12 -15 -9 -11 6 -2 24 11 24 5
0 7 -7 4 -15z m452 -6 c2 -4 -4 -10 -13 -13 -9 -4 -19 -2 -22 3 -4 5 -24 11
-46 14 -25 2 -18 3 18 3 33 0 61 -4 63 -7z m209 2 c-3 -5 7 -12 22 -14 23 -3
22 -4 -9 -6 -20 0 -39 -5 -43 -11 -7 -11 -65 -9 -65 3 0 4 1 7 3 7 1 0 20 7
42 15 48 17 58 18 50 6z m105 -1 c0 -5 -5 -10 -11 -10 -5 0 -7 5 -4 10 3 6 8
10 11 10 2 0 4 -4 4 -10z m1250 -31 c0 -6 -4 -7 -10 -4 -5 3 -10 11 -10 16 0
6 5 7 10 4 6 -3 10 -11 10 -16z m910 0 c-7 -11 -14 -19 -16 -16 -7 7 7 37 17
37 6 0 5 -9 -1 -21z m-1010 -29 c0 -5 -2 -10 -4 -10 -3 0 -8 5 -11 10 -3 6 -1
10 4 10 6 0 11 -4 11 -10z m-1186 -16 c3 -8 2 -12 -4 -9 -6 3 -10 10 -10 16 0
14 7 11 14 -7z m1625 -34 c-22 -29 -25 -30 -36 -13 -11 14 -10 19 4 27 10 5
22 16 27 24 5 9 11 11 18 4 7 -7 2 -21 -13 -42z m-79 15 c24 -14 24 -14 3 -15
-30 0 -54 10 -47 21 7 12 14 11 44 -6z m-186 -10 c11 -8 15 -15 10 -15 -6 0
-19 7 -30 15 -10 8 -14 14 -9 14 6 0 19 -6 29 -14z m-1224 1 c0 -3 -4 -8 -10
-11 -5 -3 -10 -1 -10 4 0 6 5 11 10 11 6 0 10 -2 10 -4z m1294 -36 c10 0 17
-3 13 -6 -10 -10 -57 5 -57 18 0 9 3 9 12 0 7 -7 21 -12 32 -12z m-77 4 c-3
-3 -12 -4 -19 -1 -8 3 -5 6 6 6 11 1 17 -2 13 -5z m73 -40 c0 -2 -7 -4 -15 -4
-8 0 -15 4 -15 10 0 5 7 7 15 4 8 -4 15 -8 15 -10z m470 -29 c10 -13 9 -15 -9
-15 -12 0 -32 -9 -44 -20 -15 -14 -23 -17 -26 -9 -3 11 45 59 60 59 4 0 12 -7
19 -15z m118 -4 c3 -8 -1 -12 -9 -9 -7 2 -15 10 -17 17 -3 8 1 12 9 9 7 -2 15
-10 17 -17z m-1857 -33 c37 -45 16 -44 -41 1 l-25 21 23 0 c13 0 32 -10 43
-22z m-721 8 c0 -3 -4 -8 -10 -11 -5 -3 -10 -1 -10 4 0 6 5 11 10 11 6 0 10
-2 10 -4z m1066 -41 c-9 -14 -21 -25 -27 -25 -6 0 -1 14 11 31 26 36 40 31 16
-6z m954 -5 c0 -6 -12 -15 -26 -20 -35 -14 -37 -13 -16 9 19 21 42 27 42 11z
m-865 -60 c-3 -5 -13 -10 -21 -10 -8 0 -12 5 -9 10 3 6 13 10 21 10 8 0 12 -4
9 -10z m-56 -17 c0 -5 -17 -21 -37 -38 l-37 -30 30 37 c29 35 46 47 44 31z
m181 -63 c0 -15 -7 -20 -25 -20 -18 0 -25 5 -25 20 0 15 7 20 25 20 18 0 25
-5 25 -20z m-1220 -30 c0 -5 -4 -10 -10 -10 -5 0 -10 5 -10 10 0 6 5 10 10 10
6 0 10 -4 10 -10z m1219 -55 c10 -10 10 -18 2 -31 -7 -14 -10 -15 -11 -4 0 8
-12 25 -27 38 l-28 23 25 -7 c14 -3 31 -12 39 -19z m-1059 -55 c0 -5 -4 -10
-10 -10 -5 0 -10 5 -10 10 0 6 5 10 10 10 6 0 10 -4 10 -10z m1935 -50 c-3 -5
-10 -10 -16 -10 -5 0 -9 5 -9 10 0 6 7 10 16 10 8 0 12 -4 9 -10z m-725 -100
c0 -5 -2 -10 -4 -10 -3 0 -8 5 -11 10 -3 6 -1 10 4 10 6 0 11 -4 11 -10z
m-130 -316 c0 -13 -21 -44 -30 -44 -11 0 -14 33 -3 43 8 8 33 9 33 1z m215
-14 c-3 -5 -13 -10 -21 -10 -8 0 -12 5 -9 10 3 6 13 10 21 10 8 0 12 -4 9 -10z
m-449 -158 c-14 -14 -16 -14 -16 -1 0 20 23 44 29 28 2 -6 -4 -18 -13 -27z
m37 -32 c-2 -3 -15 -5 -29 -5 -22 -1 -22 0 -8 16 13 14 19 15 29 6 7 -7 11
-14 8 -17z m12 -70 c3 -6 -1 -7 -9 -4 -18 7 -21 14 -7 14 6 0 13 -4 16 -10z"/>
<path d="M4476 3674 c-3 -8 -10 -12 -16 -9 -5 3 -10 1 -10 -4 0 -6 4 -11 9
-11 5 0 18 -3 28 -6 15 -5 16 -4 3 6 -11 9 -12 13 -2 17 14 5 16 23 3 23 -5 0
-12 -7 -15 -16z"/>
<path d="M5375 4243 c-3 -16 -10 -42 -15 -59 -20 -62 -3 -111 19 -56 9 22 12
142 4 142 -2 0 -5 -12 -8 -27z"/>
<path d="M4723 4163 c-9 -3 -9 -11 3 -29 9 -13 21 -21 28 -17 6 4 5 -1 -2 -10
-12 -14 -10 -20 15 -41 19 -17 30 -21 35 -13 11 17 9 69 -2 87 -6 10 -10 11
-10 3 0 -7 -7 -13 -15 -13 -8 0 -15 9 -15 20 0 19 -12 24 -37 13z"/>
<path d="M4505 4050 c3 -5 12 -7 20 -3 21 7 19 13 -6 13 -11 0 -18 -4 -14 -10z"/>
<path d="M5471 3953 c-1 -12 -5 -24 -10 -28 -11 -6 -10 -45 1 -45 4 0 12 9 18
20 16 29 27 25 40 -15 6 -19 16 -35 22 -35 6 0 8 6 5 13 -2 6 -10 29 -18 50
-8 23 -19 37 -30 37 -10 0 -20 6 -22 13 -3 6 -6 2 -6 -10z"/>
<path d="M5403 3787 c-8 -17 -9 -27 -2 -27 6 0 7 -6 3 -12 -5 -10 -4 -10 5 -2
7 6 11 24 9 40 l-3 29 -12 -28z"/>
<path d="M6705 3631 c-3 -6 4 -15 15 -21 20 -11 21 -10 10 9 -12 23 -16 25
-25 12z"/>
<path d="M7338 3503 c-8 -10 -29 -39 -46 -64 l-31 -46 23 -22 c12 -12 26 -18
30 -14 4 5 13 0 21 -10 12 -16 14 -16 39 13 14 18 26 38 26 46 0 21 -28 47
-44 41 -7 -3 -19 -1 -26 3 -11 7 -11 11 -1 24 7 8 19 12 26 10 8 -4 13 1 11
10 -3 25 -12 27 -28 9z"/>
<path d="M7297 3503 c-4 -3 -7 -11 -7 -17 0 -6 5 -5 12 2 6 6 9 14 7 17 -3 3
-9 2 -12 -2z"/>
<path d="M6872 3148 c-5 -8 -6 -22 -1 -33 9 -23 11 -20 13 18 2 31 2 31 -12
15z"/>
<path d="M6837 3123 c-3 -5 0 -19 8 -29 15 -20 18 -11 6 20 -4 11 -10 15 -14
9z"/>
<path d="M7525 3050 c-3 -6 2 -13 12 -17 10 -3 21 -8 25 -10 3 -1 4 6 1 17 -6
21 -28 27 -38 10z"/>
<path d="M7120 2938 c0 -9 5 -20 10 -23 13 -8 13 5 0 25 -8 13 -10 13 -10 -2z"/>
<path d="M5959 2379 c-19 -16 -20 -18 -4 -10 34 17 51 31 39 31 -7 0 -22 -9
-35 -21z"/>
<path d="M5459 2033 c-13 -16 -12 -17 4 -4 16 13 21 21 13 21 -2 0 -10 -8 -17
-17z"/>
<path d="M7365 2660 c-3 -5 -1 -10 4 -10 6 0 11 5 11 10 0 6 -2 10 -4 10 -3 0
-8 -4 -11 -10z"/>
</g>
</svg>
